999
FreeCAD v1.2 20260224 (Git shallow)
  0
SECTION
  2
HEADER
  9
$ACADVER
  1
AC1014
  9
$ACADMAINTVER
 70
     9
  9
$DWGCODEPAGE
  3
ANSI_1252
  9
$TEXTSTYLE
  7
STANDARD
  9
$DIMSTYLE
  2
STANDARD
  9
$DIMTXSTY
  7
STANDARD
  9
$CMLSTYLE
  2
STANDARD
  9
$LUNITS
 70
2
  9
$INSUNITS
 70
4
  9
$PEXTMAX
 10
50
 20
50
 30
50
  9
$PEXTMIN
 10
0
 20
0
 30
0
  9
$HANDSEED
  5
FFFF
  0
ENDSEC
  0
SECTION
  2
CLASSES
  0
CLASS
  1
ACDBDICTIONARYWDFLT
  2
AcDbDictionaryWithDefault
  3
ObjectDBX Classes
 90
        0
280
     0
281
     0
  0
CLASS
  1
XRECORD
  2
AcDbXrecord
  3
ObjectDBX Classes
 90
        0
280
     0
281
     0
  0
CLASS
  1
LWPOLYLINE
  2
AcDbPolyline
  3
ObjectDBX Classes
 90
        0
280
     0
281
     1
  0
ENDSEC
  0
SECTION
  2
TABLES
  0
TABLE
  2
VPORT
  5
20
330
0
100
AcDbSymbolTable
 70
     1
  0
VPORT
  5
21
330
20
100
AcDbSymbolTableRecord
100
AcDbViewportTableRecord
  2
*ACTIVE
 70
     0
  0
ENDTAB
  0
TABLE
  2
LTYPE
  5
22
330
0
100
AcDbSymbolTable
 70
     1
  0
LTYPE
  5
23
330
21
100
AcDbSymbolTableRecord
100
AcDbLinetypeTableRecord
  2
BYBLOCK
 70
     0
  3

 72
    65
 73
     0
 40
0.0
  0
LTYPE
  5
24
330
21
100
AcDbSymbolTableRecord
100
AcDbLinetypeTableRecord
  2
BYLAYER
 70
     0
  3

 72
    65
 73
     0
 40
0.0
  0
LTYPE
  5
25
330
21
100
AcDbSymbolTableRecord
100
AcDbLinetypeTableRecord
  2
CONTINUOUS
 70
     0
  3
Solid line
 72
    65
 73
     0
 40
0.0
  0
ENDTAB
  0
TABLE
  2
LAYER
  5
AE9
330
0
100
AcDbSymbolTable
 70
19
  0
LAYER
  5
AEA
330
AE9
100
AcDbSymbolTableRecord
100
AcDbLayerTableRecord
  2
0
 70
   0
 62
   7
  6
CONTINUOUS
  0
LAYER
  5
AEB
330
AE9
100
AcDbSymbolTableRecord
100
AcDbLayerTableRecord
  2
FrontView
 70
    0
 62
    7
  6
CONTINUOUS
  0
LAYER
  5
AEC
330
AE9
100
AcDbSymbolTableRecord
100
AcDbLayerTableRecord
  2
RightView
 70
    0
 62
    7
  6
CONTINUOUS
  0
LAYER
  5
AED
330
AE9
100
AcDbSymbolTableRecord
100
AcDbLayerTableRecord
  2
TopView
 70
    0
 62
    7
  6
CONTINUOUS
  0
LAYER
  5
AEE
330
AE9
100
AcDbSymbolTableRecord
100
AcDbLayerTableRecord
  2
IsoView
 70
    0
 62
    7
  6
CONTINUOUS
  0
LAYER
  5
AEF
330
AE9
100
AcDbSymbolTableRecord
100
AcDbLayerTableRecord
  2
BaseLength
 70
    0
 62
    7
  6
CONTINUOUS
  0
LAYER
  5
AF0
330
AE9
100
AcDbSymbolTableRecord
100
AcDbLayerTableRecord
  2
TotalHeight
 70
    0
 62
    7
  6
CONTINUOUS
  0
LAYER
  5
AF1
330
AE9
100
AcDbSymbolTableRecord
100
AcDbLayerTableRecord
  2
FilletRadius
 70
    0
 62
    7
  6
CONTINUOUS
  0
LAYER
  5
AF2
330
AE9
100
AcDbSymbolTableRecord
100
AcDbLayerTableRecord
  2
BossDiameter
 70
    0
 62
    7
  6
CONTINUOUS
  0
LAYER
  5
AF3
330
AE9
100
AcDbSymbolTableRecord
100
AcDbLayerTableRecord
  2
BossChamferDim
 70
    0
 62
    7
  6
CONTINUOUS
  0
LAYER
  5
AF4
330
AE9
100
AcDbSymbolTableRecord
100
AcDbLayerTableRecord
  2
BaseChamferDim
 70
    0
 62
    7
  6
CONTINUOUS
  0
LAYER
  5
AF5
330
AE9
100
AcDbSymbolTableRecord
100
AcDbLayerTableRecord
  2
BaseWidthRight
 70
    0
 62
    7
  6
CONTINUOUS
  0
LAYER
  5
AF6
330
AE9
100
AcDbSymbolTableRecord
100
AcDbLayerTableRecord
  2
BaseHeightRight
 70
    0
 62
    7
  6
CONTINUOUS
  0
LAYER
  5
AF7
330
AE9
100
AcDbSymbolTableRecord
100
AcDbLayerTableRecord
  2
BoreDiameter
 70
    0
 62
    7
  6
CONTINUOUS
  0
LAYER
  5
AF8
330
AE9
100
AcDbSymbolTableRecord
100
AcDbLayerTableRecord
  2
MountHoleDiameter
 70
    0
 62
    7
  6
CONTINUOUS
  0
LAYER
  5
AF9
330
AE9
100
AcDbSymbolTableRecord
100
AcDbLayerTableRecord
  2
MountInsetX
 70
    0
 62
    7
  6
CONTINUOUS
  0
LAYER
  5
AFA
330
AE9
100
AcDbSymbolTableRecord
100
AcDbLayerTableRecord
  2
MountInsetY
 70
    0
 62
    7
  6
CONTINUOUS
  0
LAYER
  5
AFB
330
AE9
100
AcDbSymbolTableRecord
100
AcDbLayerTableRecord
  2
Title
 70
    0
 62
    7
  6
CONTINUOUS
  0
LAYER
  5
AFC
330
AE9
100
AcDbSymbolTableRecord
100
AcDbLayerTableRecord
  2
Material
 70
    0
 62
    7
  6
CONTINUOUS
  0
ENDTAB
  0
TABLE
  2
STYLE
  5
70
330
0
100
AcDbSymbolTable
 70
     2
  0
STYLE
  5
71
330
70
100
AcDbSymbolTableRecord
100
AcDbTextStyleTableRecord
  2
STANDARD
 70
     0
 40
0.0
 41
1.0
 50
0.0
 71
     0
 42
2.5
  3
arial.ttf
  4

  0
STYLE
  5
72
330
70
100
AcDbSymbolTableRecord
100
AcDbTextStyleTableRecord
  2
ANNOTATIVE
 70
     0
 40
0.0
 41
1.0
 50
0.0
 71
     0
 42
2.5
  3
arial.ttf
  4

  0
ENDTAB
  0
TABLE
  2
VIEW
  5
73
330
0
100
AcDbSymbolTable
 70
     0
  0
ENDTAB
  0
TABLE
  2
UCS
  5
74
330
0
100
AcDbSymbolTable
 70
     0
  0
ENDTAB
  0
TABLE
  2
APPID
  5
75
330
0
100
AcDbSymbolTable
 70
     2
  0
APPID
  5
76
330
75
100
AcDbSymbolTableRecord
100
AcDbRegAppTableRecord
  2
ACAD
 70
     0
  0
APPID
  5
77
330
75
100
AcDbSymbolTableRecord
100
AcDbRegAppTableRecord
  2
ACADANNOTATIVE
 70
     0
  0
ENDTAB
  0
TABLE
  2
DIMSTYLE
  5
78
330
0
100
AcDbSymbolTable
 70
     2
  0
DIMSTYLE
105
79
330
78
100
AcDbSymbolTableRecord
100
AcDbDimStyleTableRecord
  2
STANDARD
 70
     0
  3

  4

  5

  6

  7

 40
0.0
 41
2.5
 42
0.625
 43
3.75
 44
1.25
 45
0.0
 46
0.0
 47
0.0
 48
0.0
140
2.5
141
2.5
142
0.0
143
0.03937007874016
144
1.0
145
0.0
146
1.0
147
0.625
 71
     0
 72
     0
 73
     0
 74
     0
 75
     0
 76
     0
 77
     1
 78
     8
170
     0
171
     3
172
     1
173
     0
174
     0
175
     0
176
     0
177
     0
178
     0
270
     2
271
     2
272
     2
273
     2
274
     3
340
71
275
     0
280
     0
281
     0
282
     0
283
     0
284
     8
285
     0
286
     0
287
     3
288
     0
  0
ENDTAB
  0
TABLE
  2
BLOCK_RECORD
  5
A01
330
0
100
AcDbSymbolTable
  70
5
  0
BLOCK_RECORD
  5
A02
330
A01
100
AcDbSymbolTableRecord
100
AcDbBlockTableRecord
  2
*MODEL_SPACE
  0
BLOCK_RECORD
  5
A03
330
A01
100
AcDbSymbolTableRecord
100
AcDbBlockTableRecord
  2
*PAPER_SPACE
  0
BLOCK_RECORD
  5
A77
330
A01
100
AcDbSymbolTableRecord
100
AcDbBlockTableRecord
  2
*BaseLength
  0
BLOCK_RECORD
  5
A81
330
A01
100
AcDbSymbolTableRecord
100
AcDbBlockTableRecord
  2
*TotalHeight
  0
BLOCK_RECORD
  5
A8B
330
A01
100
AcDbSymbolTableRecord
100
AcDbBlockTableRecord
  2
*FilletRadius
  0
BLOCK_RECORD
  5
A92
330
A01
100
AcDbSymbolTableRecord
100
AcDbBlockTableRecord
  2
*BossDiameter
  0
BLOCK_RECORD
  5
A9C
330
A01
100
AcDbSymbolTableRecord
100
AcDbBlockTableRecord
  2
*BossChamferDim
  0
BLOCK_RECORD
  5
AA6
330
A01
100
AcDbSymbolTableRecord
100
AcDbBlockTableRecord
  2
*BaseChamferDim
  0
BLOCK_RECORD
  5
AB0
330
A01
100
AcDbSymbolTableRecord
100
AcDbBlockTableRecord
  2
*BaseWidthRight
  0
BLOCK_RECORD
  5
ABA
330
A01
100
AcDbSymbolTableRecord
100
AcDbBlockTableRecord
  2
*BaseHeightRight
  0
BLOCK_RECORD
  5
AC4
330
A01
100
AcDbSymbolTableRecord
100
AcDbBlockTableRecord
  2
*BoreDiameter
  0
BLOCK_RECORD
  5
ACC
330
A01
100
AcDbSymbolTableRecord
100
AcDbBlockTableRecord
  2
*MountHoleDiameter
  0
BLOCK_RECORD
  5
AD4
330
A01
100
AcDbSymbolTableRecord
100
AcDbBlockTableRecord
  2
*MountInsetX
  0
BLOCK_RECORD
  5
ADE
330
A01
100
AcDbSymbolTableRecord
100
AcDbBlockTableRecord
  2
*MountInsetY
  0
ENDTAB
  0
ENDSEC
  0
SECTION
  2
BLOCKS
  0
BLOCK
  5
A04
330
A02
100
AcDbEntity
  8
0
100
AcDbBlockBegin
  2
*MODEL_SPACE
 70
   0
 10
0
 20
0
 30
0
  3
*MODEL_SPACE
  1
 
  0
ENDBLK
  5
A05
330
A02
100
AcDbEntity
  8
0
100
AcDbBlockEnd
  0
BLOCK
  5
A06
330
A03
100
AcDbEntity
 67
1
  8
0
100
AcDbBlockBegin
  2
*PAPER_SPACE
 70
   0
 10
0
 20
0
 30
0
  3
*PAPER_SPACE
  1
 
  0
ENDBLK
  5
A07
330
A03
100
AcDbEntity
 67
    1
  8
0
100
AcDbBlockEnd
  0
BLOCK
  5
A78
330
A77
100
AcDbEntity
  8
BaseLength
100
AcDbBlockBegin
  2
*BaseLength
 70
   1
 10
0
 20
0
 30
0
  3
*BaseLength
  1
 
  0
LINE
  5
A79
330
A77
100
AcDbEntity
  8
BaseLength
100
AcDbLine
 10
130
 20
143
 30
0
 11
130
 21
168
 31
0
  0
LINE
  5
A7A
330
A77
100
AcDbEntity
  8
BaseLength
100
AcDbLine
 10
50
 20
143
 30
0
 11
50
 21
168
 31
0
  0
LINE
  5
A7B
330
A77
100
AcDbEntity
  8
BaseLength
100
AcDbLine
 10
50
 20
168
 30
0
 11
130
 21
168
 31
0
  0
TEXT
  5
A7C
330
A77
100
AcDbEntity
  8
BaseLength
100
AcDbText
 10
90
 20
173
 30
0
 40
3.5
  1
100
  7
STANDARD
 72
1
 11
90
 21
168
 31
0
100
AcDbText
  0
SOLID
  5
A7D
330
A77
100
AcDbEntity
  8
0
 62
     0
100
AcDbTrace
 10
45
 20
168.417
 30
0
 11
45
 21
167.583
 31
0
 12
50
 22
168
 32
0
 13
50
 23
168
 33
0
  0
SOLID
  5
A7E
330
A77
100
AcDbEntity
  8
0
 62
     0
100
AcDbTrace
 10
135
 20
168.417
 30
0
 11
135
 21
167.583
 31
0
 12
130
 22
168
 32
0
 13
130
 23
168
 33
0
  0
ENDBLK
  5
A7F
330
A77
100
AcDbEntity
  8
BaseLength
100
AcDbBlockEnd
  0
BLOCK
  5
A82
330
A81
100
AcDbEntity
  8
TotalHeight
100
AcDbBlockBegin
  2
*TotalHeight
 70
   1
 10
0
 20
0
 30
0
  3
*TotalHeight
  1
 
  0
LINE
  5
A83
330
A81
100
AcDbEntity
  8
TotalHeight
100
AcDbLine
 10
75.6
 20
167
 30
0
 11
20
 21
167
 31
0
  0
LINE
  5
A84
330
A81
100
AcDbEntity
  8
TotalHeight
100
AcDbLine
 10
75.6
 20
143
 30
0
 11
20
 21
143
 31
0
  0
LINE
  5
A85
330
A81
100
AcDbEntity
  8
TotalHeight
100
AcDbLine
 10
20
 20
143
 30
0
 11
20
 21
167
 31
0
  0
TEXT
  5
A86
330
A81
100
AcDbEntity
  8
TotalHeight
100
AcDbText
 10
25
 20
155
 30
0
 40
3.5
  1
30
  7
STANDARD
 72
1
 11
20
 21
155
 31
0
100
AcDbText
  0
SOLID
  5
A87
330
A81
100
AcDbEntity
  8
0
 62
     0
100
AcDbTrace
 10
19.5833
 20
138
 30
0
 11
20.4167
 21
138
 31
0
 12
20
 22
143
 32
0
 13
20
 23
143
 33
0
  0
SOLID
  5
A88
330
A81
100
AcDbEntity
  8
0
 62
     0
100
AcDbTrace
 10
19.5833
 20
172
 30
0
 11
20.4167
 21
172
 31
0
 12
20
 22
167
 32
0
 13
20
 23
167
 33
0
  0
ENDBLK
  5
A89
330
A81
100
AcDbEntity
  8
TotalHeight
100
AcDbBlockEnd
  0
BLOCK
  5
A8C
330
A8B
100
AcDbEntity
  8
FilletRadius
100
AcDbBlockBegin
  2
*FilletRadius
 70
   1
 10
0
 20
0
 30
0
  3
*FilletRadius
  1
 
  0
LINE
  5
A8D
330
A8B
100
AcDbEntity
  8
FilletRadius
100
AcDbLine
 10
110
 20
155
 30
0
 11
106.003
 21
154.855
 31
0
  0
TEXT
  5
A8E
330
A8B
100
AcDbEntity
  8
FilletRadius
100
AcDbText
 10
58
 20
158
 30
0
 40
3.5
  1
R5
  7
STANDARD
 72
1
 11
58
 21
158
 31
0
100
AcDbText
  0
SOLID
  5
A8F
330
A8B
100
AcDbEntity
  8
0
 62
     0
100
AcDbTrace
 10
111.014
 20
154.62
 30
0
 11
110.984
 21
155.453
 31
0
 12
106.003
 22
154.855
 32
0
 13
106.003
 23
154.855
 33
0
  0
ENDBLK
  5
A90
330
A8B
100
AcDbEntity
  8
FilletRadius
100
AcDbBlockEnd
  0
BLOCK
  5
A93
330
A92
100
AcDbEntity
  8
BossDiameter
100
AcDbBlockBegin
  2
*BossDiameter
 70
   1
 10
0
 20
0
 30
0
  3
*BossDiameter
  1
 
  0
LINE
  5
A94
330
A92
100
AcDbEntity
  8
BossDiameter
100
AcDbLine
 10
106
 20
165.4
 30
0
 11
106
 21
110
 31
0
  0
LINE
  5
A95
330
A92
100
AcDbEntity
  8
BossDiameter
100
AcDbLine
 10
74
 20
165.4
 30
0
 11
74
 21
110
 31
0
  0
LINE
  5
A96
330
A92
100
AcDbEntity
  8
BossDiameter
100
AcDbLine
 10
74
 20
110
 30
0
 11
106
 21
110
 31
0
  0
TEXT
  5
A97
330
A92
100
AcDbEntity
  8
BossDiameter
100
AcDbText
 10
90
 20
115
 30
0
 40
3.5
  1
⌀40
  7
STANDARD
 72
1
 11
90
 21
110
 31
0
100
AcDbText
  0
SOLID
  5
A98
330
A92
100
AcDbEntity
  8
0
 62
     0
100
AcDbTrace
 10
69
 20
109.583
 30
0
 11
69
 21
110.417
 31
0
 12
74
 22
110
 32
0
 13
74
 23
110
 33
0
  0
SOLID
  5
A99
330
A92
100
AcDbEntity
  8
0
 62
     0
100
AcDbTrace
 10
111
 20
109.583
 30
0
 11
111
 21
110.417
 31
0
 12
106
 22
110
 32
0
 13
106
 23
110
 33
0
  0
ENDBLK
  5
A9A
330
A92
100
AcDbEntity
  8
BossDiameter
100
AcDbBlockEnd
  0
BLOCK
  5
A9D
330
A9C
100
AcDbEntity
  8
BossChamferDim
100
AcDbBlockBegin
  2
*BossChamferDim
 70
   1
 10
0
 20
0
 30
0
  3
*BossChamferDim
  1
 
  0
LINE
  5
A9E
330
A9C
100
AcDbEntity
  8
BossChamferDim
100
AcDbLine
 10
104.4
 20
167
 30
0
 11
104.4
 21
130.536
 31
0
  0
LINE
  5
A9F
330
A9C
100
AcDbEntity
  8
BossChamferDim
100
AcDbLine
 10
106
 20
165.4
 30
0
 11
106
 21
130.536
 31
0
  0
LINE
  5
AA0
330
A9C
100
AcDbEntity
  8
BossChamferDim
100
AcDbLine
 10
106
 20
130.536
 30
0
 11
104.4
 21
130.536
 31
0
  0
TEXT
  5
AA1
330
A9C
100
AcDbEntity
  8
BossChamferDim
100
AcDbText
 10
120
 20
127
 30
0
 40
3.5
  1
2 x45°
  7
STANDARD
 72
1
 11
116.464
 21
130.536
 31
0
100
AcDbText
  0
SOLID
  5
AA2
330
A9C
100
AcDbEntity
  8
0
 62
     0
100
AcDbTrace
 10
111
 20
130.119
 30
0
 11
111
 21
130.952
 31
0
 12
106
 22
130.536
 32
0
 13
106
 23
130.536
 33
0
  0
SOLID
  5
AA3
330
A9C
100
AcDbEntity
  8
0
 62
     0
100
AcDbTrace
 10
99.4
 20
130.119
 30
0
 11
99.4
 21
130.952
 31
0
 12
104.4
 22
130.536
 32
0
 13
104.4
 23
130.536
 33
0
  0
ENDBLK
  5
AA4
330
A9C
100
AcDbEntity
  8
BossChamferDim
100
AcDbBlockEnd
  0
BLOCK
  5
AA7
330
AA6
100
AcDbEntity
  8
BaseChamferDim
100
AcDbBlockBegin
  2
*BaseChamferDim
 70
   1
 10
0
 20
0
 30
0
  3
*BaseChamferDim
  1
 
  0
LINE
  5
AA8
330
AA6
100
AcDbEntity
  8
BaseChamferDim
100
AcDbLine
 10
130
 20
150.2
 30
0
 11
130
 21
156.464
 31
0
  0
LINE
  5
AA9
330
AA6
100
AcDbEntity
  8
BaseChamferDim
100
AcDbLine
 10
129.2
 20
151
 30
0
 11
129.2
 21
156.464
 31
0
  0
LINE
  5
AAA
330
AA6
100
AcDbEntity
  8
BaseChamferDim
100
AcDbLine
 10
129.2
 20
156.464
 30
0
 11
130
 21
156.464
 31
0
  0
TEXT
  5
AAB
330
AA6
100
AcDbEntity
  8
BaseChamferDim
100
AcDbText
 10
145
 20
160
 30
0
 40
3.5
  1
1 x45°
  7
STANDARD
 72
1
 11
148.536
 21
156.464
 31
0
100
AcDbText
  0
SOLID
  5
AAC
330
AA6
100
AcDbEntity
  8
0
 62
     0
100
AcDbTrace
 10
124.2
 20
156.881
 30
0
 11
124.2
 21
156.048
 31
0
 12
129.2
 22
156.464
 32
0
 13
129.2
 23
156.464
 33
0
  0
SOLID
  5
AAD
330
AA6
100
AcDbEntity
  8
0
 62
     0
100
AcDbTrace
 10
135
 20
156.881
 30
0
 11
135
 21
156.048
 31
0
 12
130
 22
156.464
 32
0
 13
130
 23
156.464
 33
0
  0
ENDBLK
  5
AAE
330
AA6
100
AcDbEntity
  8
BaseChamferDim
100
AcDbBlockEnd
  0
BLOCK
  5
AB1
330
AB0
100
AcDbEntity
  8
BaseWidthRight
100
AcDbBlockBegin
  2
*BaseWidthRight
 70
   1
 10
0
 20
0
 30
0
  3
*BaseWidthRight
  1
 
  0
LINE
  5
AB2
330
AB0
100
AcDbEntity
  8
BaseWidthRight
100
AcDbLine
 10
244
 20
150.2
 30
0
 11
244
 21
168
 31
0
  0
LINE
  5
AB3
330
AB0
100
AcDbEntity
  8
BaseWidthRight
100
AcDbLine
 10
196
 20
150.2
 30
0
 11
196
 21
168
 31
0
  0
LINE
  5
AB4
330
AB0
100
AcDbEntity
  8
BaseWidthRight
100
AcDbLine
 10
196
 20
168
 30
0
 11
244
 21
168
 31
0
  0
TEXT
  5
AB5
330
AB0
100
AcDbEntity
  8
BaseWidthRight
100
AcDbText
 10
220
 20
173
 30
0
 40
3.5
  1
60
  7
STANDARD
 72
1
 11
220
 21
168
 31
0
100
AcDbText
  0
SOLID
  5
AB6
330
AB0
100
AcDbEntity
  8
0
 62
     0
100
AcDbTrace
 10
191
 20
168.417
 30
0
 11
191
 21
167.583
 31
0
 12
196
 22
168
 32
0
 13
196
 23
168
 33
0
  0
SOLID
  5
AB7
330
AB0
100
AcDbEntity
  8
0
 62
     0
100
AcDbTrace
 10
249
 20
168.417
 30
0
 11
249
 21
167.583
 31
0
 12
244
 22
168
 32
0
 13
244
 23
168
 33
0
  0
ENDBLK
  5
AB8
330
AB0
100
AcDbEntity
  8
BaseWidthRight
100
AcDbBlockEnd
  0
BLOCK
  5
ABB
330
ABA
100
AcDbEntity
  8
BaseHeightRight
100
AcDbBlockBegin
  2
*BaseHeightRight
 70
   1
 10
0
 20
0
 30
0
  3
*BaseHeightRight
  1
 
  0
LINE
  5
ABC
330
ABA
100
AcDbEntity
  8
BaseHeightRight
100
AcDbLine
 10
196.8
 20
151
 30
0
 11
260
 21
151
 31
0
  0
LINE
  5
ABD
330
ABA
100
AcDbEntity
  8
BaseHeightRight
100
AcDbLine
 10
196.8
 20
143
 30
0
 11
260
 21
143
 31
0
  0
LINE
  5
ABE
330
ABA
100
AcDbEntity
  8
BaseHeightRight
100
AcDbLine
 10
260
 20
143
 30
0
 11
260
 21
151
 31
0
  0
TEXT
  5
ABF
330
ABA
100
AcDbEntity
  8
BaseHeightRight
100
AcDbText
 10
265
 20
160
 30
0
 40
3.5
  1
10
  7
STANDARD
 72
1
 11
260
 21
160
 31
0
100
AcDbText
  0
SOLID
  5
AC0
330
ABA
100
AcDbEntity
  8
0
 62
     0
100
AcDbTrace
 10
260.417
 20
138
 30
0
 11
259.583
 21
138
 31
0
 12
260
 22
143
 32
0
 13
260
 23
143
 33
0
  0
SOLID
  5
AC1
330
ABA
100
AcDbEntity
  8
0
 62
     0
100
AcDbTrace
 10
260.417
 20
156
 30
0
 11
259.583
 21
156
 31
0
 12
260
 22
151
 32
0
 13
260
 23
151
 33
0
  0
ENDBLK
  5
AC2
330
ABA
100
AcDbEntity
  8
BaseHeightRight
100
AcDbBlockEnd
  0
BLOCK
  5
AC5
330
AC4
100
AcDbEntity
  8
BoreDiameter
100
AcDbBlockBegin
  2
*BoreDiameter
 70
   1
 10
0
 20
0
 30
0
  3
*BoreDiameter
  1
 
  0
LINE
  5
AC6
330
AC4
100
AcDbEntity
  8
BoreDiameter
100
AcDbLine
 10
98
 20
65.0054
 30
0
 11
82
 21
64.9946
 31
0
  0
TEXT
  5
AC7
330
AC4
100
AcDbEntity
  8
BoreDiameter
100
AcDbText
 10
118
 20
70
 30
0
 40
3.5
  1
⌀20
  7
STANDARD
 72
1
 11
118
 21
70
 31
0
100
AcDbText
  0
SOLID
  5
AC8
330
AC4
100
AcDbEntity
  8
0
 62
     0
100
AcDbTrace
 10
93.0003
 20
64.5853
 30
0
 11
92.9997
 21
65.4187
 31
0
 12
98
 22
65.0054
 32
0
 13
98
 23
65.0054
 33
0
  0
SOLID
  5
AC9
330
AC4
100
AcDbEntity
  8
0
 62
     0
100
AcDbTrace
 10
87.0003
 20
64.5813
 30
0
 11
86.9997
 21
65.4147
 31
0
 12
82
 22
64.9946
 32
0
 13
82
 23
64.9946
 33
0
  0
ENDBLK
  5
ACA
330
AC4
100
AcDbEntity
  8
BoreDiameter
100
AcDbBlockEnd
  0
BLOCK
  5
ACD
330
ACC
100
AcDbEntity
  8
MountHoleDiameter
100
AcDbBlockBegin
  2
*MountHoleDiameter
 70
   1
 10
0
 20
0
 30
0
  3
*MountHoleDiameter
  1
 
  0
LINE
  5
ACE
330
ACC
100
AcDbEntity
  8
MountHoleDiameter
100
AcDbLine
 10
120.957
 20
75.7757
 30
0
 11
115.043
 21
78.2243
 31
0
  0
TEXT
  5
ACF
330
ACC
100
AcDbEntity
  8
MountHoleDiameter
100
AcDbText
 10
160
 20
65
 30
0
 40
3.5
  1
⌀8
  7
STANDARD
 72
1
 11
160
 21
65
 31
0
100
AcDbText
  0
SOLID
  5
AD0
330
ACC
100
AcDbEntity
  8
0
 62
     0
100
AcDbTrace
 10
116.178
 20
77.3037
 30
0
 11
116.496
 21
78.0736
 31
0
 12
120.957
 22
75.7757
 32
0
 13
120.957
 23
75.7757
 33
0
  0
SOLID
  5
AD1
330
ACC
100
AcDbEntity
  8
0
 62
     0
100
AcDbTrace
 10
119.504
 20
75.9264
 30
0
 11
119.822
 21
76.6963
 31
0
 12
115.043
 22
78.2243
 32
0
 13
115.043
 23
78.2243
 33
0
  0
ENDBLK
  5
AD2
330
ACC
100
AcDbEntity
  8
MountHoleDiameter
100
AcDbBlockEnd
  0
BLOCK
  5
AD5
330
AD4
100
AcDbEntity
  8
MountInsetX
100
AcDbBlockBegin
  2
*MountInsetX
 70
   1
 10
0
 20
0
 30
0
  3
*MountInsetX
  1
 
  0
LINE
  5
AD6
330
AD4
100
AcDbEntity
  8
MountInsetX
100
AcDbLine
 10
50
 20
53
 30
0
 11
50
 21
24
 31
0
  0
LINE
  5
AD7
330
AD4
100
AcDbEntity
  8
MountInsetX
100
AcDbLine
 10
62
 20
53
 30
0
 11
62
 21
24
 31
0
  0
LINE
  5
AD8
330
AD4
100
AcDbEntity
  8
MountInsetX
100
AcDbLine
 10
62
 20
24
 30
0
 11
50
 21
24
 31
0
  0
TEXT
  5
AD9
330
AD4
100
AcDbEntity
  8
MountInsetX
100
AcDbText
 10
47.5
 20
19
 30
0
 40
3.5
  1
15
  7
STANDARD
 72
1
 11
47.5
 21
24
 31
0
100
AcDbText
  0
SOLID
  5
ADA
330
AD4
100
AcDbEntity
  8
0
 62
     0
100
AcDbTrace
 10
67
 20
23.5833
 30
0
 11
67
 21
24.4167
 31
0
 12
62
 22
24
 32
0
 13
62
 23
24
 33
0
  0
SOLID
  5
ADB
330
AD4
100
AcDbEntity
  8
0
 62
     0
100
AcDbTrace
 10
45
 20
23.5833
 30
0
 11
45
 21
24.4167
 31
0
 12
50
 22
24
 32
0
 13
50
 23
24
 33
0
  0
ENDBLK
  5
ADC
330
AD4
100
AcDbEntity
  8
MountInsetX
100
AcDbBlockEnd
  0
BLOCK
  5
ADF
330
ADE
100
AcDbEntity
  8
MountInsetY
100
AcDbBlockBegin
  2
*MountInsetY
 70
   1
 10
0
 20
0
 30
0
  3
*MountInsetY
  1
 
  0
LINE
  5
AE0
330
ADE
100
AcDbEntity
  8
MountInsetY
100
AcDbLine
 10
50
 20
41
 30
0
 11
27.5355
 21
41
 31
0
  0
LINE
  5
AE1
330
ADE
100
AcDbEntity
  8
MountInsetY
100
AcDbLine
 10
62
 20
53
 30
0
 11
27.5355
 21
53
 31
0
  0
LINE
  5
AE2
330
ADE
100
AcDbEntity
  8
MountInsetY
100
AcDbLine
 10
27.5355
 20
53
 30
0
 11
27.5355
 21
41
 31
0
  0
TEXT
  5
AE3
330
ADE
100
AcDbEntity
  8
MountInsetY
100
AcDbText
 10
24
 20
42.5
 30
0
 40
3.5
  1
15
  7
STANDARD
 72
1
 11
27.5355
 21
46.0355
 31
0
100
AcDbText
  0
SOLID
  5
AE4
330
ADE
100
AcDbEntity
  8
0
 62
     0
100
AcDbTrace
 10
27.1189
 20
58
 30
0
 11
27.9522
 21
58
 31
0
 12
27.5355
 22
53
 32
0
 13
27.5355
 23
53
 33
0
  0
SOLID
  5
AE5
330
ADE
100
AcDbEntity
  8
0
 62
     0
100
AcDbTrace
 10
27.1189
 20
36
 30
0
 11
27.9522
 21
36
 31
0
 12
27.5355
 22
41
 32
0
 13
27.5355
 23
41
 33
0
  0
ENDBLK
  5
AE6
330
ADE
100
AcDbEntity
  8
MountInsetY
100
AcDbBlockEnd
  0
ENDSEC
  0
SECTION
  2
ENTITIES
  0
LINE
  5
A08
330
A02
100
AcDbEntity
  8
FrontView
100
AcDbLine
 10
106.000000000
 20
155.000000000
 30
0.000000000
 11
106.000000000
 21
165.400000000
 31
0.000000000
  0
SPLINE
  5
A09
330
A02
100
AcDbEntity
  8
FrontView
100
AcDbSpline
210
0
220
0
230
1
 70
8
 71
1
 72
17
 73
15
 74
0
 40
3.141592654
 40
3.141592654
 40
3.365992129
 40
3.590391604
 40
3.814791079
 40
4.039190555
 40
4.263590030
 40
4.487989505
 40
4.712388980
 40
4.936788456
 40
5.161187931
 40
5.385587406
 40
5.609986881
 40
5.834386357
 40
6.058785832
 40
6.283185307
 40
6.283185307
 10
74.000000000
 20
165.400000000
 30
0.000000000
 10
74.401153405
 20
165.400000000
 30
0.000000000
 10
75.584498114
 20
165.400000000
 30
0.000000000
 10
77.490696281
 20
165.400000000
 30
0.000000000
 10
80.024163170
 20
165.400000000
 30
0.000000000
 10
83.057860174
 20
165.400000000
 30
0.000000000
 10
86.439665057
 20
165.400000000
 30
0.000000000
 10
90.000000000
 20
165.400000000
 30
0.000000000
 10
93.560334943
 20
165.400000000
 30
0.000000000
 10
96.942139826
 20
165.400000000
 30
0.000000000
 10
99.975836830
 20
165.400000000
 30
0.000000000
 10
102.509303719
 20
165.400000000
 30
0.000000000
 10
104.415501886
 20
165.400000000
 30
0.000000000
 10
105.598846595
 20
165.400000000
 30
0.000000000
 10
106.000000000
 20
165.400000000
 30
0.000000000
  0
LINE
  5
A0A
330
A02
100
AcDbEntity
  8
FrontView
100
AcDbLine
 10
106.000000000
 20
165.400000000
 30
0.000000000
 11
104.400000000
 21
167.000000000
 31
0.000000000
  0
SPLINE
  5
A0B
330
A02
100
AcDbEntity
  8
FrontView
100
AcDbSpline
210
0
220
0
230
1
 70
8
 71
1
 72
17
 73
15
 74
0
 40
3.141592654
 40
3.141592654
 40
3.365992129
 40
3.590391604
 40
3.814791079
 40
4.039190555
 40
4.263590030
 40
4.487989505
 40
4.712388980
 40
4.936788456
 40
5.161187931
 40
5.385587406
 40
5.609986881
 40
5.834386357
 40
6.058785832
 40
6.283185307
 40
6.283185307
 10
75.600000000
 20
167.000000000
 30
0.000000000
 10
75.961038065
 20
167.000000000
 30
0.000000000
 10
77.026048302
 20
167.000000000
 30
0.000000000
 10
78.741626652
 20
167.000000000
 30
0.000000000
 10
81.021746853
 20
167.000000000
 30
0.000000000
 10
83.752074157
 20
167.000000000
 30
0.000000000
 10
86.795698551
 20
167.000000000
 30
0.000000000
 10
90.000000000
 20
167.000000000
 30
0.000000000
 10
93.204301449
 20
167.000000000
 30
0.000000000
 10
96.247925843
 20
167.000000000
 30
0.000000000
 10
98.978253147
 20
167.000000000
 30
0.000000000
 10
101.258373348
 20
167.000000000
 30
0.000000000
 10
102.973951698
 20
167.000000000
 30
0.000000000
 10
104.038961935
 20
167.000000000
 30
0.000000000
 10
104.400000000
 20
167.000000000
 30
0.000000000
  0
ARC
  5
A0C
330
A02
100
AcDbEntity
  8
FrontView
100
AcDbCircle
 10
110.000000000
 20
155.000000000
 30
0.000000000
 40
4.000000000
100
AcDbArc
 50
180.000000000
 51
-90.000000000
  0
LINE
  5
A0D
330
A02
100
AcDbEntity
  8
FrontView
100
AcDbLine
 10
50.800000000
 20
151.000000000
 30
0.000000000
 11
129.200000000
 21
151.000000000
 31
0.000000000
  0
LINE
  5
A0E
330
A02
100
AcDbEntity
  8
FrontView
100
AcDbLine
 10
50.800000000
 20
151.000000000
 30
0.000000000
 11
50.000000000
 21
150.200000000
 31
0.000000000
  0
LINE
  5
A0F
330
A02
100
AcDbEntity
  8
FrontView
100
AcDbLine
 10
50.000000000
 20
150.200000000
 30
0.000000000
 11
130.000000000
 21
150.200000000
 31
0.000000000
  0
LINE
  5
A10
330
A02
100
AcDbEntity
  8
FrontView
100
AcDbLine
 10
129.200000000
 20
151.000000000
 30
0.000000000
 11
130.000000000
 21
150.200000000
 31
0.000000000
  0
LINE
  5
A11
330
A02
100
AcDbEntity
  8
FrontView
100
AcDbLine
 10
50.000000000
 20
143.000000000
 30
0.000000000
 11
130.000000000
 21
143.000000000
 31
0.000000000
  0
LINE
  5
A12
330
A02
100
AcDbEntity
  8
FrontView
100
AcDbLine
 10
50.000000000
 20
143.000000000
 30
0.000000000
 11
50.000000000
 21
150.200000000
 31
0.000000000
  0
LINE
  5
A13
330
A02
100
AcDbEntity
  8
FrontView
100
AcDbLine
 10
130.000000000
 20
143.000000000
 30
0.000000000
 11
130.000000000
 21
150.200000000
 31
0.000000000
  0
LINE
  5
A14
330
A02
100
AcDbEntity
  8
FrontView
100
AcDbLine
 10
74.000000000
 20
165.400000000
 30
0.000000000
 11
74.000000000
 21
155.000000000
 31
0.000000000
  0
LINE
  5
A15
330
A02
100
AcDbEntity
  8
FrontView
100
AcDbLine
 10
75.600000000
 20
167.000000000
 30
0.000000000
 11
74.000000000
 21
165.400000000
 31
0.000000000
  0
SPLINE
  5
A16
330
A02
100
AcDbEntity
  8
FrontView
100
AcDbSpline
210
0
220
0
230
1
 70
8
 71
3
 72
14
 73
10
 74
0
 40
0.000000000
 40
0.000000000
 40
0.000000000
 40
0.000000000
 40
0.280017729
 40
0.280017729
 40
0.280017729
 40
0.565035746
 40
0.565035746
 40
0.565035746
 40
1.000000000
 40
1.000000000
 40
1.000000000
 40
1.000000000
 10
74.000000000
 20
155.000000000
 30
0.000000000
 10
74.000436628
 20
154.413487579
 30
0.000000000
 10
73.869428257
 20
153.827389642
 30
0.000000000
 10
73.619308237
 20
153.296882821
 30
0.000000000
 10
73.365546248
 20
152.756507084
 30
0.000000000
 10
72.988668563
 20
152.274570271
 30
0.000000000
 10
72.525414589
 20
151.898012842
 30
0.000000000
 10
71.819876339
 20
151.320437146
 30
0.000000000
 10
70.911796183
 20
150.997528943
 30
0.000000000
 10
70.000000000
 20
151.000000000
 30
0.000000000
  0
SPLINE
  5
A17
330
A02
100
AcDbEntity
  8
FrontView
100
AcDbSpline
210
0
220
0
230
1
 70
8
 71
1
 72
17
 73
15
 74
0
 40
3.141592654
 40
3.141592654
 40
3.365992129
 40
3.590391604
 40
3.814791079
 40
4.039190555
 40
4.263590030
 40
4.487989505
 40
4.712388980
 40
4.936788456
 40
5.161187931
 40
5.385587406
 40
5.609986881
 40
5.834386357
 40
6.058785832
 40
6.283185307
 40
6.283185307
 10
74.000000000
 20
155.000000000
 30
0.000000000
 10
74.401153405
 20
155.000000000
 30
0.000000000
 10
75.584498114
 20
155.000000000
 30
0.000000000
 10
77.490696281
 20
155.000000000
 30
0.000000000
 10
80.024163170
 20
155.000000000
 30
0.000000000
 10
83.057860174
 20
155.000000000
 30
0.000000000
 10
86.439665057
 20
155.000000000
 30
0.000000000
 10
90.000000000
 20
155.000000000
 30
0.000000000
 10
93.560334943
 20
155.000000000
 30
0.000000000
 10
96.942139826
 20
155.000000000
 30
0.000000000
 10
99.975836830
 20
155.000000000
 30
0.000000000
 10
102.509303719
 20
155.000000000
 30
0.000000000
 10
104.415501886
 20
155.000000000
 30
0.000000000
 10
105.598846595
 20
155.000000000
 30
0.000000000
 10
106.000000000
 20
155.000000000
 30
0.000000000
  0
SPLINE
  5
A18
330
A02
100
AcDbEntity
  8
RightView
100
AcDbSpline
210
0
220
0
230
1
 70
8
 71
1
 72
17
 73
15
 74
0
 40
0.000000000
 40
0.000000000
 40
0.112199738
 40
0.224399475
 40
0.336599213
 40
0.448798951
 40
0.560998688
 40
0.673198426
 40
0.785398163
 40
0.897597901
 40
1.009797639
 40
1.121997376
 40
1.234197114
 40
1.346396852
 40
1.458596589
 40
1.570796327
 40
1.570796327
 10
220.000000000
 20
165.400000000
 30
0.000000000
 10
221.791431618
 20
165.400000000
 30
0.000000000
 10
223.560334943
 20
165.400000000
 30
0.000000000
 10
225.284464991
 20
165.400000000
 30
0.000000000
 10
226.942139826
 20
165.400000000
 30
0.000000000
 10
228.512513224
 20
165.400000000
 30
0.000000000
 10
229.975836830
 20
165.400000000
 30
0.000000000
 10
231.313708499
 20
165.400000000
 30
0.000000000
 10
232.509303719
 20
165.400000000
 30
0.000000000
 10
233.547587188
 20
165.400000000
 30
0.000000000
 10
234.415501886
 20
165.400000000
 30
0.000000000
 10
235.102133285
 20
165.400000000
 30
0.000000000
 10
235.598846595
 20
165.400000000
 30
0.000000000
 10
235.899395358
 20
165.400000000
 30
0.000000000
 10
236.000000000
 20
165.400000000
 30
0.000000000
  0
SPLINE
  5
A19
330
A02
100
AcDbEntity
  8
RightView
100
AcDbSpline
210
0
220
0
230
1
 70
8
 71
1
 72
17
 73
15
 74
0
 40
4.712388980
 40
4.712388980
 40
4.824588718
 40
4.936788456
 40
5.048988193
 40
5.161187931
 40
5.273387669
 40
5.385587406
 40
5.497787144
 40
5.609986881
 40
5.722186619
 40
5.834386357
 40
5.946586094
 40
6.058785832
 40
6.170985570
 40
6.283185307
 40
6.283185307
 10
204.000000000
 20
165.400000000
 30
0.000000000
 10
204.100604642
 20
165.400000000
 30
0.000000000
 10
204.401153405
 20
165.400000000
 30
0.000000000
 10
204.897866715
 20
165.400000000
 30
0.000000000
 10
205.584498114
 20
165.400000000
 30
0.000000000
 10
206.452412812
 20
165.400000000
 30
0.000000000
 10
207.490696281
 20
165.400000000
 30
0.000000000
 10
208.686291501
 20
165.400000000
 30
0.000000000
 10
210.024163170
 20
165.400000000
 30
0.000000000
 10
211.487486776
 20
165.400000000
 30
0.000000000
 10
213.057860174
 20
165.400000000
 30
0.000000000
 10
214.715535009
 20
165.400000000
 30
0.000000000
 10
216.439665057
 20
165.400000000
 30
0.000000000
 10
218.208568382
 20
165.400000000
 30
0.000000000
 10
220.000000000
 20
165.400000000
 30
0.000000000
  0
SPLINE
  5
A1A
330
A02
100
AcDbEntity
  8
RightView
100
AcDbSpline
210
0
220
0
230
1
 70
8
 71
1
 72
17
 73
15
 74
0
 40
0.000000000
 40
0.000000000
 40
0.112199738
 40
0.224399475
 40
0.336599213
 40
0.448798951
 40
0.560998688
 40
0.673198426
 40
0.785398163
 40
0.897597901
 40
1.009797639
 40
1.121997376
 40
1.234197114
 40
1.346396852
 40
1.458596589
 40
1.570796327
 40
1.570796327
 10
220.000000000
 20
167.000000000
 30
0.000000000
 10
221.612288456
 20
167.000000000
 30
0.000000000
 10
223.204301449
 20
167.000000000
 30
0.000000000
 10
224.756018492
 20
167.000000000
 30
0.000000000
 10
226.247925843
 20
167.000000000
 30
0.000000000
 10
227.661261902
 20
167.000000000
 30
0.000000000
 10
228.978253147
 20
167.000000000
 30
0.000000000
 10
230.182337649
 20
167.000000000
 30
0.000000000
 10
231.258373348
 20
167.000000000
 30
0.000000000
 10
232.192828469
 20
167.000000000
 30
0.000000000
 10
232.973951698
 20
167.000000000
 30
0.000000000
 10
233.591919956
 20
167.000000000
 30
0.000000000
 10
234.038961935
 20
167.000000000
 30
0.000000000
 10
234.309455822
 20
167.000000000
 30
0.000000000
 10
234.400000000
 20
167.000000000
 30
0.000000000
  0
SPLINE
  5
A1B
330
A02
100
AcDbEntity
  8
RightView
100
AcDbSpline
210
0
220
0
230
1
 70
8
 71
1
 72
17
 73
15
 74
0
 40
4.712388980
 40
4.712388980
 40
4.824588718
 40
4.936788456
 40
5.048988193
 40
5.161187931
 40
5.273387669
 40
5.385587406
 40
5.497787144
 40
5.609986881
 40
5.722186619
 40
5.834386357
 40
5.946586094
 40
6.058785832
 40
6.170985570
 40
6.283185307
 40
6.283185307
 10
205.600000000
 20
167.000000000
 30
0.000000000
 10
205.690544178
 20
167.000000000
 30
0.000000000
 10
205.961038065
 20
167.000000000
 30
0.000000000
 10
206.408080044
 20
167.000000000
 30
0.000000000
 10
207.026048302
 20
167.000000000
 30
0.000000000
 10
207.807171531
 20
167.000000000
 30
0.000000000
 10
208.741626652
 20
167.000000000
 30
0.000000000
 10
209.817662351
 20
167.000000000
 30
0.000000000
 10
211.021746853
 20
167.000000000
 30
0.000000000
 10
212.338738098
 20
167.000000000
 30
0.000000000
 10
213.752074157
 20
167.000000000
 30
0.000000000
 10
215.243981508
 20
167.000000000
 30
0.000000000
 10
216.795698551
 20
167.000000000
 30
0.000000000
 10
218.387711544
 20
167.000000000
 30
0.000000000
 10
220.000000000
 20
167.000000000
 30
0.000000000
  0
LINE
  5
A1C
330
A02
100
AcDbEntity
  8
RightView
100
AcDbLine
 10
196.800000000
 20
151.000000000
 30
0.000000000
 11
243.200000000
 21
151.000000000
 31
0.000000000
  0
LINE
  5
A1D
330
A02
100
AcDbEntity
  8
RightView
100
AcDbLine
 10
196.800000000
 20
151.000000000
 30
0.000000000
 11
196.000000000
 21
150.200000000
 31
0.000000000
  0
LINE
  5
A1E
330
A02
100
AcDbEntity
  8
RightView
100
AcDbLine
 10
196.000000000
 20
150.200000000
 30
0.000000000
 11
244.000000000
 21
150.200000000
 31
0.000000000
  0
LINE
  5
A1F
330
A02
100
AcDbEntity
  8
RightView
100
AcDbLine
 10
243.200000000
 20
151.000000000
 30
0.000000000
 11
244.000000000
 21
150.200000000
 31
0.000000000
  0
LINE
  5
A20
330
A02
100
AcDbEntity
  8
RightView
100
AcDbLine
 10
196.000000000
 20
143.000000000
 30
0.000000000
 11
244.000000000
 21
143.000000000
 31
0.000000000
  0
LINE
  5
A21
330
A02
100
AcDbEntity
  8
RightView
100
AcDbLine
 10
196.000000000
 20
143.000000000
 30
0.000000000
 11
196.000000000
 21
150.200000000
 31
0.000000000
  0
LINE
  5
A22
330
A02
100
AcDbEntity
  8
RightView
100
AcDbLine
 10
244.000000000
 20
143.000000000
 30
0.000000000
 11
244.000000000
 21
150.200000000
 31
0.000000000
  0
LINE
  5
A23
330
A02
100
AcDbEntity
  8
RightView
100
AcDbLine
 10
204.000000000
 20
165.400000000
 30
0.000000000
 11
204.000000000
 21
155.000000000
 31
0.000000000
  0
LINE
  5
A24
330
A02
100
AcDbEntity
  8
RightView
100
AcDbLine
 10
236.000000000
 20
165.400000000
 30
0.000000000
 11
236.000000000
 21
155.000000000
 31
0.000000000
  0
LINE
  5
A25
330
A02
100
AcDbEntity
  8
RightView
100
AcDbLine
 10
234.400000000
 20
167.000000000
 30
0.000000000
 11
236.000000000
 21
165.400000000
 31
0.000000000
  0
LINE
  5
A26
330
A02
100
AcDbEntity
  8
RightView
100
AcDbLine
 10
205.600000000
 20
167.000000000
 30
0.000000000
 11
204.000000000
 21
165.400000000
 31
0.000000000
  0
SPLINE
  5
A27
330
A02
100
AcDbEntity
  8
RightView
100
AcDbSpline
210
0
220
0
230
1
 70
8
 71
3
 72
14
 73
10
 74
0
 40
0.000000000
 40
0.000000000
 40
0.000000000
 40
0.000000000
 40
0.280017729
 40
0.280017729
 40
0.280017729
 40
0.565035746
 40
0.565035746
 40
0.565035746
 40
1.000000000
 40
1.000000000
 40
1.000000000
 40
1.000000000
 10
236.000000000
 20
155.000000000
 30
0.000000000
 10
235.999563372
 20
154.413487579
 30
0.000000000
 10
236.130571743
 20
153.827389642
 30
0.000000000
 10
236.380691763
 20
153.296882821
 30
0.000000000
 10
236.634453752
 20
152.756507084
 30
0.000000000
 10
237.011331437
 20
152.274570271
 30
0.000000000
 10
237.474585411
 20
151.898012842
 30
0.000000000
 10
238.180123661
 20
151.320437146
 30
0.000000000
 10
239.088203817
 20
150.997528943
 30
0.000000000
 10
240.000000000
 20
151.000000000
 30
0.000000000
  0
SPLINE
  5
A28
330
A02
100
AcDbEntity
  8
RightView
100
AcDbSpline
210
0
220
0
230
1
 70
8
 71
3
 72
14
 73
10
 74
0
 40
0.000000000
 40
0.000000000
 40
0.000000000
 40
0.000000000
 40
0.280017729
 40
0.280017729
 40
0.280017729
 40
0.565035746
 40
0.565035746
 40
0.565035746
 40
1.000000000
 40
1.000000000
 40
1.000000000
 40
1.000000000
 10
204.000000000
 20
155.000000000
 30
0.000000000
 10
204.000436628
 20
154.413487579
 30
0.000000000
 10
203.869428257
 20
153.827389642
 30
0.000000000
 10
203.619308237
 20
153.296882821
 30
0.000000000
 10
203.365546248
 20
152.756507084
 30
0.000000000
 10
202.988668563
 20
152.274570271
 30
0.000000000
 10
202.525414589
 20
151.898012842
 30
0.000000000
 10
201.819876339
 20
151.320437146
 30
0.000000000
 10
200.911796183
 20
150.997528943
 30
0.000000000
 10
200.000000000
 20
151.000000000
 30
0.000000000
  0
SPLINE
  5
A29
330
A02
100
AcDbEntity
  8
RightView
100
AcDbSpline
210
0
220
0
230
1
 70
8
 71
1
 72
17
 73
15
 74
0
 40
0.000000000
 40
0.000000000
 40
0.112199738
 40
0.224399475
 40
0.336599213
 40
0.448798951
 40
0.560998688
 40
0.673198426
 40
0.785398163
 40
0.897597901
 40
1.009797639
 40
1.121997376
 40
1.234197114
 40
1.346396852
 40
1.458596589
 40
1.570796327
 40
1.570796327
 10
220.000000000
 20
155.000000000
 30
0.000000000
 10
221.791431618
 20
155.000000000
 30
0.000000000
 10
223.560334943
 20
155.000000000
 30
0.000000000
 10
225.284464991
 20
155.000000000
 30
0.000000000
 10
226.942139826
 20
155.000000000
 30
0.000000000
 10
228.512513224
 20
155.000000000
 30
0.000000000
 10
229.975836830
 20
155.000000000
 30
0.000000000
 10
231.313708499
 20
155.000000000
 30
0.000000000
 10
232.509303719
 20
155.000000000
 30
0.000000000
 10
233.547587188
 20
155.000000000
 30
0.000000000
 10
234.415501886
 20
155.000000000
 30
0.000000000
 10
235.102133285
 20
155.000000000
 30
0.000000000
 10
235.598846595
 20
155.000000000
 30
0.000000000
 10
235.899395358
 20
155.000000000
 30
0.000000000
 10
236.000000000
 20
155.000000000
 30
0.000000000
  0
SPLINE
  5
A2A
330
A02
100
AcDbEntity
  8
RightView
100
AcDbSpline
210
0
220
0
230
1
 70
8
 71
1
 72
17
 73
15
 74
0
 40
4.712388980
 40
4.712388980
 40
4.824588718
 40
4.936788456
 40
5.048988193
 40
5.161187931
 40
5.273387669
 40
5.385587406
 40
5.497787144
 40
5.609986881
 40
5.722186619
 40
5.834386357
 40
5.946586094
 40
6.058785832
 40
6.170985570
 40
6.283185307
 40
6.283185307
 10
204.000000000
 20
155.000000000
 30
0.000000000
 10
204.100604642
 20
155.000000000
 30
0.000000000
 10
204.401153405
 20
155.000000000
 30
0.000000000
 10
204.897866715
 20
155.000000000
 30
0.000000000
 10
205.584498114
 20
155.000000000
 30
0.000000000
 10
206.452412812
 20
155.000000000
 30
0.000000000
 10
207.490696281
 20
155.000000000
 30
0.000000000
 10
208.686291501
 20
155.000000000
 30
0.000000000
 10
210.024163170
 20
155.000000000
 30
0.000000000
 10
211.487486776
 20
155.000000000
 30
0.000000000
 10
213.057860174
 20
155.000000000
 30
0.000000000
 10
214.715535009
 20
155.000000000
 30
0.000000000
 10
216.439665057
 20
155.000000000
 30
0.000000000
 10
218.208568382
 20
155.000000000
 30
0.000000000
 10
220.000000000
 20
155.000000000
 30
0.000000000
  0
CIRCLE
  5
A2B
330
A02
100
AcDbEntity
  8
TopView
100
AcDbCircle
 10
90.000000000
 20
65.000000000
 30
0.000000000
 40
16.000000000
  0
CIRCLE
  5
A2C
330
A02
100
AcDbEntity
  8
TopView
100
AcDbCircle
 10
90.000000000
 20
65.000000000
 30
0.000000000
 40
14.400000000
  0
CIRCLE
  5
A2D
330
A02
100
AcDbEntity
  8
TopView
100
AcDbCircle
 10
90.000000000
 20
65.000000000
 30
0.000000000
 40
8.000000000
  0
LINE
  5
A2E
330
A02
100
AcDbEntity
  8
TopView
100
AcDbLine
 10
50.800000000
 20
41.800000000
 30
0.000000000
 11
129.200000000
 21
41.800000000
 31
0.000000000
  0
LINE
  5
A2F
330
A02
100
AcDbEntity
  8
TopView
100
AcDbLine
 10
50.800000000
 20
88.200000000
 30
0.000000000
 11
50.800000000
 21
41.800000000
 31
0.000000000
  0
LINE
  5
A30
330
A02
100
AcDbEntity
  8
TopView
100
AcDbLine
 10
129.200000000
 20
41.800000000
 30
0.000000000
 11
129.200000000
 21
88.200000000
 31
0.000000000
  0
LINE
  5
A31
330
A02
100
AcDbEntity
  8
TopView
100
AcDbLine
 10
129.200000000
 20
88.200000000
 30
0.000000000
 11
50.800000000
 21
88.200000000
 31
0.000000000
  0
CIRCLE
  5
A32
330
A02
100
AcDbEntity
  8
TopView
100
AcDbCircle
 10
62.000000000
 20
53.000000000
 30
0.000000000
 40
3.200000000
  0
CIRCLE
  5
A33
330
A02
100
AcDbEntity
  8
TopView
100
AcDbCircle
 10
118.000000000
 20
53.000000000
 30
0.000000000
 40
3.200000000
  0
CIRCLE
  5
A34
330
A02
100
AcDbEntity
  8
TopView
100
AcDbCircle
 10
62.000000000
 20
77.000000000
 30
0.000000000
 40
3.200000000
  0
CIRCLE
  5
A35
330
A02
100
AcDbEntity
  8
TopView
100
AcDbCircle
 10
118.000000000
 20
77.000000000
 30
0.000000000
 40
3.200000000
  0
LINE
  5
A36
330
A02
100
AcDbEntity
  8
TopView
100
AcDbLine
 10
50.800000000
 20
41.800000000
 30
0.000000000
 11
50.000000000
 21
41.000000000
 31
0.000000000
  0
LINE
  5
A37
330
A02
100
AcDbEntity
  8
TopView
100
AcDbLine
 10
50.000000000
 20
41.000000000
 30
0.000000000
 11
130.000000000
 21
41.000000000
 31
0.000000000
  0
LINE
  5
A38
330
A02
100
AcDbEntity
  8
TopView
100
AcDbLine
 10
129.200000000
 20
41.800000000
 30
0.000000000
 11
130.000000000
 21
41.000000000
 31
0.000000000
  0
LINE
  5
A39
330
A02
100
AcDbEntity
  8
TopView
100
AcDbLine
 10
50.800000000
 20
88.200000000
 30
0.000000000
 11
50.000000000
 21
89.000000000
 31
0.000000000
  0
LINE
  5
A3A
330
A02
100
AcDbEntity
  8
TopView
100
AcDbLine
 10
50.000000000
 20
89.000000000
 30
0.000000000
 11
50.000000000
 21
41.000000000
 31
0.000000000
  0
LINE
  5
A3B
330
A02
100
AcDbEntity
  8
TopView
100
AcDbLine
 10
130.000000000
 20
41.000000000
 30
0.000000000
 11
130.000000000
 21
89.000000000
 31
0.000000000
  0
LINE
  5
A3C
330
A02
100
AcDbEntity
  8
TopView
100
AcDbLine
 10
129.200000000
 20
88.200000000
 30
0.000000000
 11
130.000000000
 21
89.000000000
 31
0.000000000
  0
LINE
  5
A3D
330
A02
100
AcDbEntity
  8
TopView
100
AcDbLine
 10
130.000000000
 20
89.000000000
 30
0.000000000
 11
50.000000000
 21
89.000000000
 31
0.000000000
  0
CIRCLE
  5
A3E
330
A02
100
AcDbEntity
  8
TopView
100
AcDbCircle
 10
90.000000000
 20
65.000000000
 30
0.000000000
 40
20.000000000
  0
LINE
  5
A3F
330
A02
100
AcDbEntity
  8
TopView
100
AcDbLine
 10
90.000000000
 20
42.600000000
 30
0.000000000
 11
90.000000000
 21
87.400000000
 31
0.000000000
  0
LINE
  5
A40
330
A02
100
AcDbEntity
  8
TopView
100
AcDbLine
 10
67.600000000
 20
65.000000000
 30
0.000000000
 11
112.400000000
 21
65.000000000
 31
0.000000000
  0
LINE
  5
A41
330
A02
100
AcDbEntity
  8
TopView
100
AcDbLine
 10
62.000000000
 20
72.200000000
 30
0.000000000
 11
62.000000000
 21
81.800000000
 31
0.000000000
  0
LINE
  5
A42
330
A02
100
AcDbEntity
  8
TopView
100
AcDbLine
 10
57.200000000
 20
77.000000000
 30
0.000000000
 11
66.800000000
 21
77.000000000
 31
0.000000000
  0
LINE
  5
A43
330
A02
100
AcDbEntity
  8
TopView
100
AcDbLine
 10
118.000000000
 20
72.200000000
 30
0.000000000
 11
118.000000000
 21
81.800000000
 31
0.000000000
  0
LINE
  5
A44
330
A02
100
AcDbEntity
  8
TopView
100
AcDbLine
 10
113.200000000
 20
77.000000000
 30
0.000000000
 11
122.800000000
 21
77.000000000
 31
0.000000000
  0
LINE
  5
A45
330
A02
100
AcDbEntity
  8
TopView
100
AcDbLine
 10
62.000000000
 20
48.200000000
 30
0.000000000
 11
62.000000000
 21
57.800000000
 31
0.000000000
  0
LINE
  5
A46
330
A02
100
AcDbEntity
  8
TopView
100
AcDbLine
 10
57.200000000
 20
53.000000000
 30
0.000000000
 11
66.800000000
 21
53.000000000
 31
0.000000000
  0
LINE
  5
A47
330
A02
100
AcDbEntity
  8
TopView
100
AcDbLine
 10
118.000000000
 20
48.200000000
 30
0.000000000
 11
118.000000000
 21
57.800000000
 31
0.000000000
  0
LINE
  5
A48
330
A02
100
AcDbEntity
  8
TopView
100
AcDbLine
 10
113.200000000
 20
53.000000000
 30
0.000000000
 11
122.800000000
 21
53.000000000
 31
0.000000000
  0
ELLIPSE
  5
A49
330
A02
100
AcDbEntity
  8
IsoView
100
AcDbEllipse
 10
214.627452497
 20
72.523616152
 30
0.000000000
 11
9.699484522
 21
5.600000000
 31
0.000000000
 40
0.577350269
 41
5.497787144
 42
0.000000000
  0
ELLIPSE
  5
A4A
330
A02
100
AcDbEntity
  8
IsoView
100
AcDbEllipse
 10
214.627452497
 20
72.523616152
 30
0.000000000
 11
9.699484522
 21
5.600000000
 31
0.000000000
 40
0.577350269
 41
0.000000000
 42
0.785398163
  0
ELLIPSE
  5
A4B
330
A02
100
AcDbEntity
  8
IsoView
100
AcDbEllipse
 10
214.627452497
 20
72.523616152
 30
0.000000000
 11
9.699484522
 21
5.600000000
 31
0.000000000
 40
0.577350269
 41
2.356194490
 42
3.141592654
  0
ELLIPSE
  5
A4C
330
A02
100
AcDbEntity
  8
IsoView
100
AcDbEllipse
 10
214.627452497
 20
72.523616152
 30
0.000000000
 11
9.699484522
 21
5.600000000
 31
0.000000000
 40
0.577350269
 41
3.141592654
 42
5.497787144
  0
ELLIPSE
  5
A4D
330
A02
100
AcDbEntity
  8
IsoView
100
AcDbEllipse
 10
214.170214412
 20
73.315575747
 30
0.000000000
 11
8.729536070
 21
5.040000000
 31
0.000000000
 40
0.577350269
 41
5.497787144
 42
0.785398163
  0
ELLIPSE
  5
A4E
330
A02
100
AcDbEntity
  8
IsoView
100
AcDbEllipse
 10
214.170214412
 20
73.315575747
 30
0.000000000
 11
8.729536070
 21
5.040000000
 31
0.000000000
 40
0.577350269
 41
0.785398163
 42
2.356194490
  0
ELLIPSE
  5
A4F
330
A02
100
AcDbEntity
  8
IsoView
100
AcDbEllipse
 10
214.170214412
 20
73.315575747
 30
0.000000000
 11
8.729536070
 21
5.040000000
 31
0.000000000
 40
0.577350269
 41
2.356194490
 42
5.497787144
  0
ELLIPSE
  5
A50
330
A02
100
AcDbEntity
  8
IsoView
100
AcDbEllipse
 10
214.170214412
 20
73.315575747
 30
0.000000000
 11
4.849742261
 21
2.800000000
 31
0.000000000
 40
0.577350269
 41
5.497787144
 42
0.000000000
  0
ELLIPSE
  5
A51
330
A02
100
AcDbEntity
  8
IsoView
100
AcDbEllipse
 10
214.170214412
 20
73.315575747
 30
0.000000000
 11
4.849742261
 21
2.800000000
 31
0.000000000
 40
0.577350269
 41
0.000000000
 42
3.141592654
  0
ELLIPSE
  5
A52
330
A02
100
AcDbEntity
  8
IsoView
100
AcDbEllipse
 10
214.170214412
 20
73.315575747
 30
0.000000000
 11
4.849742261
 21
2.800000000
 31
0.000000000
 40
0.577350269
 41
3.141592654
 42
5.497787144
  0
LINE
  5
A53
330
A02
100
AcDbEntity
  8
IsoView
100
AcDbLine
 10
189.707976848
 20
53.912565671
 30
0.000000000
 11
234.517309209
 21
53.912565671
 31
0.000000000
  0
LINE
  5
A54
330
A02
100
AcDbEntity
  8
IsoView
100
AcDbLine
 10
202.967881322
 20
76.879393924
 30
0.000000000
 11
189.707976848
 21
53.912565671
 31
0.000000000
  0
LINE
  5
A55
330
A02
100
AcDbEntity
  8
IsoView
100
AcDbLine
 10
234.517309209
 20
53.912565671
 30
0.000000000
 11
247.777213683
 21
76.879393924
 31
0.000000000
  0
LINE
  5
A56
330
A02
100
AcDbEntity
  8
IsoView
100
AcDbLine
 10
247.777213683
 20
76.879393924
 30
0.000000000
 11
225.045289058
 21
76.879393924
 31
0.000000000
  0
LINE
  5
A57
330
A02
100
AcDbEntity
  8
IsoView
100
AcDbLine
 10
209.100149442
 20
76.879393924
 30
0.000000000
 11
202.967881322
 21
76.879393924
 31
0.000000000
  0
ELLIPSE
  5
A58
330
A02
100
AcDbEntity
  8
IsoView
100
AcDbEllipse
 10
199.309976639
 20
59.456282835
 30
0.000000000
 11
1.939896904
 21
1.120000000
 31
0.000000000
 40
0.577350269
 41
5.497787144
 42
0.000000000
  0
ELLIPSE
  5
A59
330
A02
100
AcDbEntity
  8
IsoView
100
AcDbEllipse
 10
199.309976639
 20
59.456282835
 30
0.000000000
 11
1.939896904
 21
1.120000000
 31
0.000000000
 40
0.577350269
 41
0.000000000
 42
3.141592654
  0
ELLIPSE
  5
A5A
330
A02
100
AcDbEntity
  8
IsoView
100
AcDbEllipse
 10
199.309976639
 20
59.456282835
 30
0.000000000
 11
1.939896904
 21
1.120000000
 31
0.000000000
 40
0.577350269
 41
3.141592654
 42
5.497787144
  0
ELLIPSE
  5
A5B
330
A02
100
AcDbEntity
  8
IsoView
100
AcDbEllipse
 10
231.316642612
 20
59.456282835
 30
0.000000000
 11
1.939896904
 21
1.120000000
 31
0.000000000
 40
0.577350269
 41
5.497787144
 42
0.000000000
  0
ELLIPSE
  5
A5C
330
A02
100
AcDbEntity
  8
IsoView
100
AcDbEllipse
 10
231.316642612
 20
59.456282835
 30
0.000000000
 11
1.939896904
 21
1.120000000
 31
0.000000000
 40
0.577350269
 41
0.000000000
 42
3.141592654
  0
ELLIPSE
  5
A5D
330
A02
100
AcDbEntity
  8
IsoView
100
AcDbEllipse
 10
231.316642612
 20
59.456282835
 30
0.000000000
 11
1.939896904
 21
1.120000000
 31
0.000000000
 40
0.577350269
 41
3.141592654
 42
5.497787144
  0
ELLIPSE
  5
A5E
330
A02
100
AcDbEntity
  8
IsoView
100
AcDbEllipse
 10
206.168547919
 20
71.335676759
 30
0.000000000
 11
1.939896904
 21
1.120000000
 31
0.000000000
 40
0.577350269
 41
1.632298338
 42
3.141592654
  0
ELLIPSE
  5
A5F
330
A02
100
AcDbEntity
  8
IsoView
100
AcDbEllipse
 10
206.168547919
 20
71.335676759
 30
0.000000000
 11
1.939896904
 21
1.120000000
 31
0.000000000
 40
0.577350269
 41
3.141592654
 42
3.429435040
  0
ELLIPSE
  5
A60
330
A02
100
AcDbEntity
  8
IsoView
100
AcDbEllipse
 10
238.175213891
 20
71.335676759
 30
0.000000000
 11
1.939896904
 21
1.120000000
 31
0.000000000
 40
0.577350269
 41
5.497787144
 42
0.000000000
  0
ELLIPSE
  5
A61
330
A02
100
AcDbEntity
  8
IsoView
100
AcDbEllipse
 10
238.175213891
 20
71.335676759
 30
0.000000000
 11
1.939896904
 21
1.120000000
 31
0.000000000
 40
0.577350269
 41
0.000000000
 42
3.141592654
  0
ELLIPSE
  5
A62
330
A02
100
AcDbEntity
  8
IsoView
100
AcDbEllipse
 10
238.175213891
 20
71.335676759
 30
0.000000000
 11
1.939896904
 21
1.120000000
 31
0.000000000
 40
0.577350269
 41
3.141592654
 42
5.497787144
  0
LINE
  5
A63
330
A02
100
AcDbEntity
  8
IsoView
100
AcDbLine
 10
189.707976848
 20
53.912565671
 30
0.000000000
 11
189.250738762
 21
53.120606076
 31
0.000000000
  0
LINE
  5
A64
330
A02
100
AcDbEntity
  8
IsoView
100
AcDbLine
 10
189.250738762
 20
53.120606076
 30
0.000000000
 11
234.974547294
 21
53.120606076
 31
0.000000000
  0
LINE
  5
A65
330
A02
100
AcDbEntity
  8
IsoView
100
AcDbLine
 10
234.517309209
 20
53.912565671
 30
0.000000000
 11
234.974547294
 21
53.120606076
 31
0.000000000
  0
LINE
  5
A66
330
A02
100
AcDbEntity
  8
IsoView
100
AcDbLine
 10
234.974547294
 20
53.120606076
 30
0.000000000
 11
248.691689854
 21
76.879393924
 31
0.000000000
  0
LINE
  5
A67
330
A02
100
AcDbEntity
  8
IsoView
100
AcDbLine
 10
247.777213683
 20
76.879393924
 30
0.000000000
 11
248.691689854
 21
76.879393924
 31
0.000000000
  0
ELLIPSE
  5
A68
330
A02
100
AcDbEntity
  8
IsoView
100
AcDbEllipse
 10
233.602833038
 20
55.496484861
 30
0.000000000
 11
1.939896904
 21
1.120000000
 31
0.000000000
 40
0.577350269
 41
3.141592654
 42
3.926990817
  0
LINE
  5
A69
330
A02
100
AcDbEntity
  8
IsoView
100
AcDbLine
 10
191.308310146
 20
49.556787899
 30
0.000000000
 11
237.032118678
 21
49.556787899
 31
0.000000000
  0
LINE
  5
A6A
330
A02
100
AcDbEntity
  8
IsoView
100
AcDbLine
 10
237.032118678
 20
49.556787899
 30
0.000000000
 11
250.749261238
 21
73.315575747
 31
0.000000000
  0
LINE
  5
A6B
330
A02
100
AcDbEntity
  8
IsoView
100
AcDbLine
 10
191.308310146
 20
49.556787899
 30
0.000000000
 11
189.250738762
 21
53.120606076
 31
0.000000000
  0
LINE
  5
A6C
330
A02
100
AcDbEntity
  8
IsoView
100
AcDbLine
 10
237.032118678
 20
49.556787899
 30
0.000000000
 11
234.974547294
 21
53.120606076
 31
0.000000000
  0
LINE
  5
A6D
330
A02
100
AcDbEntity
  8
IsoView
100
AcDbLine
 10
250.749261238
 20
73.315575747
 30
0.000000000
 11
248.691689854
 21
76.879393924
 31
0.000000000
  0
LINE
  5
A6E
330
A02
100
AcDbEntity
  8
IsoView
100
AcDbLine
 10
204.927967975
 20
66.923616152
 30
0.000000000
 11
207.900015530
 21
61.775878785
 31
0.000000000
  0
LINE
  5
A6F
330
A02
100
AcDbEntity
  8
IsoView
100
AcDbLine
 10
224.326937020
 20
78.123616152
 30
0.000000000
 11
227.298984574
 21
72.975878785
 31
0.000000000
  0
LINE
  5
A70
330
A02
100
AcDbEntity
  8
IsoView
100
AcDbLine
 10
218.285357180
 20
80.443212101
 30
0.000000000
 11
219.199833351
 21
80.443212101
 31
0.000000000
  0
LINE
  5
A71
330
A02
100
AcDbEntity
  8
IsoView
100
AcDbLine
 10
205.939928876
 20
73.315575747
 30
0.000000000
 11
205.482690791
 21
72.523616152
 31
0.000000000
  0
ELLIPSE
  5
A72
330
A02
100
AcDbEntity
  8
IsoView
100
AcDbEllipse
 10
217.599500052
 20
67.375878785
 30
0.000000000
 11
9.699484522
 21
5.600000000
 31
0.000000000
 40
0.577350269
 41
5.497787144
 42
0.000000000
  0
ELLIPSE
  5
A73
330
A02
100
AcDbEntity
  8
IsoView
100
AcDbEllipse
 10
217.599500052
 20
67.375878785
 30
0.000000000
 11
9.699484522
 21
5.600000000
 31
0.000000000
 40
0.577350269
 41
3.141592654
 42
5.497787144
  0
ELLIPSE
  5
A74
330
A02
100
AcDbEntity
  8
IsoView
100
AcDbEllipse
 10
218.742595265
 20
65.395979797
 30
0.000000000
 11
12.124355653
 21
7.000000000
 31
0.000000000
 40
0.577350269
 41
5.497787144
 42
0.643501109
  0
ELLIPSE
  5
A75
330
A02
100
AcDbEntity
  8
IsoView
100
AcDbEllipse
 10
218.742595265
 20
65.395979797
 30
0.000000000
 11
12.124355653
 21
7.000000000
 31
0.000000000
 40
0.577350269
 41
2.498091545
 42
5.497787144
  0
DIMENSION
  5
A76
330
A02
100
AcDbEntity
  8
BaseLength
100
AcDbDimension
  2
*BaseLength
 10
90.000000000
 20
168.000000000
 30
0.000000000
 11
90.000000000
 21
173.000000000
 31
0.000000000
 70
32
  1
100
  3
STANDARD
100
AcDbAlignedDimension
 13
50.000000000
 23
143.000000000
 33
0.000000000
 14
130.000000000
 24
143.000000000
 34
0.000000000
100
AcDbRotatedDimension
  0
DIMENSION
  5
A80
330
A02
100
AcDbEntity
  8
TotalHeight
100
AcDbDimension
  2
*TotalHeight
 10
20.000000000
 20
155.000000000
 30
0.000000000
 11
25.000000000
 21
155.000000000
 31
0.000000000
 70
32
  1
30
  3
STANDARD
100
AcDbAlignedDimension
 13
75.600000000
 23
143.000000000
 33
0.000000000
 14
75.600000000
 24
167.000000000
 34
0.000000000
 50
90
100
AcDbRotatedDimension
  0
DIMENSION
  5
A8A
330
A02
100
AcDbEntity
  8
FilletRadius
100
AcDbDimension
  2
*FilletRadius
 10
110.000000000
 20
155.000000000
 30
0.000000000
 11
58.000000000
 21
158.000000000
 31
0.000000000
 70
4
  1
R5
  3
STANDARD
100
AcDbRadialDimension
 15
106.002615297
 25
154.855377964
 35
0.000000000
 40
0
  0
DIMENSION
  5
A91
330
A02
100
AcDbEntity
  8
BossDiameter
100
AcDbDimension
  2
*BossDiameter
 10
90.000000000
 20
110.000000000
 30
0.000000000
 11
90.000000000
 21
115.000000000
 31
0.000000000
 70
32
  1
⌀40
  3
STANDARD
100
AcDbAlignedDimension
 13
74.000000000
 23
165.400000000
 33
0.000000000
 14
106.000000000
 24
165.400000000
 34
0.000000000
100
AcDbRotatedDimension
  0
DIMENSION
  5
A9B
330
A02
100
AcDbEntity
  8
BossChamferDim
100
AcDbDimension
  2
*BossChamferDim
 10
116.464466094
 20
130.535533906
 30
0.000000000
 11
120.000000000
 21
127.000000000
 31
0.000000000
 70
32
  1
2 x45°
  3
STANDARD
100
AcDbAlignedDimension
 13
106.000000000
 23
165.400000000
 33
0.000000000
 14
104.400000000
 24
167.000000000
 34
0.000000000
100
AcDbRotatedDimension
  0
DIMENSION
  5
AA5
330
A02
100
AcDbEntity
  8
BaseChamferDim
100
AcDbDimension
  2
*BaseChamferDim
 10
148.535533906
 20
156.464466094
 30
0.000000000
 11
145.000000000
 21
160.000000000
 31
0.000000000
 70
32
  1
1 x45°
  3
STANDARD
100
AcDbAlignedDimension
 13
129.200000000
 23
151.000000000
 33
0.000000000
 14
130.000000000
 24
150.200000000
 34
0.000000000
100
AcDbRotatedDimension
  0
DIMENSION
  5
AAF
330
A02
100
AcDbEntity
  8
BaseWidthRight
100
AcDbDimension
  2
*BaseWidthRight
 10
220.000000000
 20
168.000000000
 30
0.000000000
 11
220.000000000
 21
173.000000000
 31
0.000000000
 70
32
  1
60
  3
STANDARD
100
AcDbAlignedDimension
 13
196.000000000
 23
150.200000000
 33
0.000000000
 14
244.000000000
 24
150.200000000
 34
0.000000000
100
AcDbRotatedDimension
  0
DIMENSION
  5
AB9
330
A02
100
AcDbEntity
  8
BaseHeightRight
100
AcDbDimension
  2
*BaseHeightRight
 10
260.000000000
 20
160.000000000
 30
0.000000000
 11
265.000000000
 21
160.000000000
 31
0.000000000
 70
32
  1
10
  3
STANDARD
100
AcDbAlignedDimension
 13
196.800000000
 23
143.000000000
 33
0.000000000
 14
196.800000000
 24
151.000000000
 34
0.000000000
 50
90
100
AcDbRotatedDimension
  0
DIMENSION
  5
AC3
330
A02
100
AcDbEntity
  8
BoreDiameter
100
AcDbDimension
  2
*BoreDiameter
 10
97.999998207
 20
65.005356823
 30
0.000000000
 11
118.000000000
 21
70.000000000
 31
0.000000000
 70
3
  1
⌀20
  3
STANDARD
100
AcDbDiametricDimension
 15
82.000001793
 25
64.994643177
 35
0.000000000
 40
0
  0
DIMENSION
  5
ACB
330
A02
100
AcDbEntity
  8
MountHoleDiameter
100
AcDbDimension
  2
*MountHoleDiameter
 10
120.956552753
 20
75.775746832
 30
0.000000000
 11
160.000000000
 21
65.000000000
 31
0.000000000
 70
3
  1
⌀8
  3
STANDARD
100
AcDbDiametricDimension
 15
115.043447247
 25
78.224253168
 35
0.000000000
 40
0
  0
DIMENSION
  5
AD3
330
A02
100
AcDbEntity
  8
MountInsetX
100
AcDbDimension
  2
*MountInsetX
 10
47.500000000
 20
24.000000000
 30
0.000000000
 11
47.500000000
 21
19.000000000
 31
0.000000000
 70
32
  1
15
  3
STANDARD
100
AcDbAlignedDimension
 13
62.000000000
 23
53.000000000
 33
0.000000000
 14
50.000000000
 24
53.000000000
 34
0.000000000
100
AcDbRotatedDimension
  0
DIMENSION
  5
ADD
330
A02
100
AcDbEntity
  8
MountInsetY
100
AcDbDimension
  2
*MountInsetY
 10
27.535533906
 20
46.035533906
 30
0.000000000
 11
24.000000000
 21
42.500000000
 31
0.000000000
 70
32
  1
15
  3
STANDARD
100
AcDbAlignedDimension
 13
62.000000000
 23
53.000000000
 33
0.000000000
 14
50.000000000
 24
41.000000000
 34
0.000000000
 50
90
100
AcDbRotatedDimension
  0
TEXT
  5
AE7
330
A02
100
AcDbEntity
  8
Title
100
AcDbText
 10
250.000000000
 20
15.000000000
 30
0.000000000
 40
6.000000000
  1
Flanged Bearing Block
  7
STANDARD
 72
1
 11
250.000000000
 21
15.000000000
 31
0.000000000
100
AcDbText
  0
TEXT
  5
AE8
330
A02
100
AcDbEntity
  8
Material
100
AcDbText
 10
250.000000000
 20
22.000000000
 30
0.000000000
 40
4.000000000
  1
Material: Aluminium 6061
  7
STANDARD
 72
1
 11
250.000000000
 21
22.000000000
 31
0.000000000
100
AcDbText
  0
ENDSEC
  0
SECTION
  2
OBJECTS
  0
DICTIONARY
  5
F000
330
0
100
AcDbDictionary
  3
ACAD_GROUP
350
F001
  0
DICTIONARY
  5
F001
330
F000
100
AcDbDictionary
  0
ENDSEC
  0
EOF