999
FreeCAD v1.2 20260224 (Git shallow)
  0
SECTION
  2
HEADER
  9
$ACADVER
  1
AC1014
  9
$ACADMAINTVER
 70
     9
  9
$DWGCODEPAGE
  3
ANSI_1252
  9
$TEXTSTYLE
  7
STANDARD
  9
$DIMSTYLE
  2
STANDARD
  9
$DIMTXSTY
  7
STANDARD
  9
$CMLSTYLE
  2
STANDARD
  9
$LUNITS
 70
2
  9
$INSUNITS
 70
4
  9
$PEXTMAX
 10
50
 20
50
 30
50
  9
$PEXTMIN
 10
0
 20
0
 30
0
  9
$HANDSEED
  5
FFFF
  0
ENDSEC
  0
SECTION
  2
CLASSES
  0
CLASS
  1
ACDBDICTIONARYWDFLT
  2
AcDbDictionaryWithDefault
  3
ObjectDBX Classes
 90
        0
280
     0
281
     0
  0
CLASS
  1
XRECORD
  2
AcDbXrecord
  3
ObjectDBX Classes
 90
        0
280
     0
281
     0
  0
CLASS
  1
LWPOLYLINE
  2
AcDbPolyline
  3
ObjectDBX Classes
 90
        0
280
     0
281
     1
  0
ENDSEC
  0
SECTION
  2
TABLES
  0
TABLE
  2
VPORT
  5
20
330
0
100
AcDbSymbolTable
 70
     1
  0
VPORT
  5
21
330
20
100
AcDbSymbolTableRecord
100
AcDbViewportTableRecord
  2
*ACTIVE
 70
     0
  0
ENDTAB
  0
TABLE
  2
LTYPE
  5
22
330
0
100
AcDbSymbolTable
 70
     1
  0
LTYPE
  5
23
330
21
100
AcDbSymbolTableRecord
100
AcDbLinetypeTableRecord
  2
BYBLOCK
 70
     0
  3

 72
    65
 73
     0
 40
0.0
  0
LTYPE
  5
24
330
21
100
AcDbSymbolTableRecord
100
AcDbLinetypeTableRecord
  2
BYLAYER
 70
     0
  3

 72
    65
 73
     0
 40
0.0
  0
LTYPE
  5
25
330
21
100
AcDbSymbolTableRecord
100
AcDbLinetypeTableRecord
  2
CONTINUOUS
 70
     0
  3
Solid line
 72
    65
 73
     0
 40
0.0
  0
ENDTAB
  0
TABLE
  2
LAYER
  5
A44
330
0
100
AcDbSymbolTable
 70
7
  0
LAYER
  5
A45
330
A44
100
AcDbSymbolTableRecord
100
AcDbLayerTableRecord
  2
0
 70
   0
 62
   7
  6
CONTINUOUS
  0
LAYER
  5
A46
330
A44
100
AcDbSymbolTableRecord
100
AcDbLayerTableRecord
  2
TopView
 70
    0
 62
    7
  6
CONTINUOUS
  0
LAYER
  5
A47
330
A44
100
AcDbSymbolTableRecord
100
AcDbLayerTableRecord
  2
RoomWidth
 70
    0
 62
    7
  6
CONTINUOUS
  0
LAYER
  5
A48
330
A44
100
AcDbSymbolTableRecord
100
AcDbLayerTableRecord
  2
RoomHeight
 70
    0
 62
    7
  6
CONTINUOUS
  0
LAYER
  5
A49
330
A44
100
AcDbSymbolTableRecord
100
AcDbLayerTableRecord
  2
TableWidth
 70
    0
 62
    7
  6
CONTINUOUS
  0
LAYER
  5
A4A
330
A44
100
AcDbSymbolTableRecord
100
AcDbLayerTableRecord
  2
TableHeight
 70
    0
 62
    7
  6
CONTINUOUS
  0
LAYER
  5
A4B
330
A44
100
AcDbSymbolTableRecord
100
AcDbLayerTableRecord
  2
WallThickness
 70
    0
 62
    7
  6
CONTINUOUS
  0
ENDTAB
  0
TABLE
  2
STYLE
  5
70
330
0
100
AcDbSymbolTable
 70
     2
  0
STYLE
  5
71
330
70
100
AcDbSymbolTableRecord
100
AcDbTextStyleTableRecord
  2
STANDARD
 70
     0
 40
0.0
 41
1.0
 50
0.0
 71
     0
 42
2.5
  3
arial.ttf
  4

  0
STYLE
  5
72
330
70
100
AcDbSymbolTableRecord
100
AcDbTextStyleTableRecord
  2
ANNOTATIVE
 70
     0
 40
0.0
 41
1.0
 50
0.0
 71
     0
 42
2.5
  3
arial.ttf
  4

  0
ENDTAB
  0
TABLE
  2
VIEW
  5
73
330
0
100
AcDbSymbolTable
 70
     0
  0
ENDTAB
  0
TABLE
  2
UCS
  5
74
330
0
100
AcDbSymbolTable
 70
     0
  0
ENDTAB
  0
TABLE
  2
APPID
  5
75
330
0
100
AcDbSymbolTable
 70
     2
  0
APPID
  5
76
330
75
100
AcDbSymbolTableRecord
100
AcDbRegAppTableRecord
  2
ACAD
 70
     0
  0
APPID
  5
77
330
75
100
AcDbSymbolTableRecord
100
AcDbRegAppTableRecord
  2
ACADANNOTATIVE
 70
     0
  0
ENDTAB
  0
TABLE
  2
DIMSTYLE
  5
78
330
0
100
AcDbSymbolTable
 70
     2
  0
DIMSTYLE
105
79
330
78
100
AcDbSymbolTableRecord
100
AcDbDimStyleTableRecord
  2
STANDARD
 70
     0
  3

  4

  5

  6

  7

 40
0.0
 41
2.5
 42
0.625
 43
3.75
 44
1.25
 45
0.0
 46
0.0
 47
0.0
 48
0.0
140
2.5
141
2.5
142
0.0
143
0.03937007874016
144
1.0
145
0.0
146
1.0
147
0.625
 71
     0
 72
     0
 73
     0
 74
     0
 75
     0
 76
     0
 77
     1
 78
     8
170
     0
171
     3
172
     1
173
     0
174
     0
175
     0
176
     0
177
     0
178
     0
270
     2
271
     2
272
     2
273
     2
274
     3
340
71
275
     0
280
     0
281
     0
282
     0
283
     0
284
     8
285
     0
286
     0
287
     3
288
     0
  0
ENDTAB
  0
TABLE
  2
BLOCK_RECORD
  5
A01
330
0
100
AcDbSymbolTable
  70
5
  0
BLOCK_RECORD
  5
A02
330
A01
100
AcDbSymbolTableRecord
100
AcDbBlockTableRecord
  2
*MODEL_SPACE
  0
BLOCK_RECORD
  5
A03
330
A01
100
AcDbSymbolTableRecord
100
AcDbBlockTableRecord
  2
*PAPER_SPACE
  0
BLOCK_RECORD
  5
A13
330
A01
100
AcDbSymbolTableRecord
100
AcDbBlockTableRecord
  2
*RoomWidth
  0
BLOCK_RECORD
  5
A1D
330
A01
100
AcDbSymbolTableRecord
100
AcDbBlockTableRecord
  2
*RoomHeight
  0
BLOCK_RECORD
  5
A27
330
A01
100
AcDbSymbolTableRecord
100
AcDbBlockTableRecord
  2
*TableWidth
  0
BLOCK_RECORD
  5
A31
330
A01
100
AcDbSymbolTableRecord
100
AcDbBlockTableRecord
  2
*TableHeight
  0
BLOCK_RECORD
  5
A3B
330
A01
100
AcDbSymbolTableRecord
100
AcDbBlockTableRecord
  2
*WallThickness
  0
ENDTAB
  0
ENDSEC
  0
SECTION
  2
BLOCKS
  0
BLOCK
  5
A04
330
A02
100
AcDbEntity
  8
0
100
AcDbBlockBegin
  2
*MODEL_SPACE
 70
   0
 10
0
 20
0
 30
0
  3
*MODEL_SPACE
  1
 
  0
ENDBLK
  5
A05
330
A02
100
AcDbEntity
  8
0
100
AcDbBlockEnd
  0
BLOCK
  5
A06
330
A03
100
AcDbEntity
 67
1
  8
0
100
AcDbBlockBegin
  2
*PAPER_SPACE
 70
   0
 10
0
 20
0
 30
0
  3
*PAPER_SPACE
  1
 
  0
ENDBLK
  5
A07
330
A03
100
AcDbEntity
 67
    1
  8
0
100
AcDbBlockEnd
  0
BLOCK
  5
A14
330
A13
100
AcDbEntity
  8
RoomWidth
100
AcDbBlockBegin
  2
*RoomWidth
 70
   1
 10
0
 20
0
 30
0
  3
*RoomWidth
  1
 
  0
LINE
  5
A15
330
A13
100
AcDbEntity
  8
RoomWidth
100
AcDbLine
 10
1925
 20
1770
 30
0
 11
1925
 21
-1525.8
 31
0
  0
LINE
  5
A16
330
A13
100
AcDbEntity
  8
RoomWidth
100
AcDbLine
 10
2225
 20
1770
 30
0
 11
2225
 21
-1525.8
 31
0
  0
LINE
  5
A17
330
A13
100
AcDbEntity
  8
RoomWidth
100
AcDbLine
 10
2225
 20
-1525.8
 30
0
 11
1925
 21
-1525.8
 31
0
  0
TEXT
  5
A18
330
A13
100
AcDbEntity
  8
RoomWidth
100
AcDbText
 10
150
 20
-1530.8
 30
0
 40
3.5
  1
300
  7
STANDARD
 72
1
 11
150
 21
-1525.8
 31
0
100
AcDbText
  0
SOLID
  5
A19
330
A13
100
AcDbEntity
  8
0
 62
     0
100
AcDbTrace
 10
2230
 20
-1526.22
 30
0
 11
2230
 21
-1525.38
 31
0
 12
2225
 22
-1525.8
 32
0
 13
2225
 23
-1525.8
 33
0
  0
SOLID
  5
A1A
330
A13
100
AcDbEntity
  8
0
 62
     0
100
AcDbTrace
 10
1920
 20
-1526.22
 30
0
 11
1920
 21
-1525.38
 31
0
 12
1925
 22
-1525.8
 32
0
 13
1925
 23
-1525.8
 33
0
  0
ENDBLK
  5
A1B
330
A13
100
AcDbEntity
  8
RoomWidth
100
AcDbBlockEnd
  0
BLOCK
  5
A1E
330
A1D
100
AcDbEntity
  8
RoomHeight
100
AcDbBlockBegin
  2
*RoomHeight
 70
   1
 10
0
 20
0
 30
0
  3
*RoomHeight
  1
 
  0
LINE
  5
A1F
330
A1D
100
AcDbEntity
  8
RoomHeight
100
AcDbLine
 10
2225
 20
1770
 30
0
 11
2221.3
 21
1770
 31
0
  0
LINE
  5
A20
330
A1D
100
AcDbEntity
  8
RoomHeight
100
AcDbLine
 10
2225
 20
-1530
 30
0
 11
2221.3
 21
-1530
 31
0
  0
LINE
  5
A21
330
A1D
100
AcDbEntity
  8
RoomHeight
100
AcDbLine
 10
2221.3
 20
-1530
 30
0
 11
2221.3
 21
1770
 31
0
  0
TEXT
  5
A22
330
A1D
100
AcDbEntity
  8
RoomHeight
100
AcDbText
 10
2226.3
 20
120
 30
0
 40
3.5
  1
3300
  7
STANDARD
 72
1
 11
2221.3
 21
120
 31
0
100
AcDbText
  0
SOLID
  5
A23
330
A1D
100
AcDbEntity
  8
0
 62
     0
100
AcDbTrace
 10
2220.88
 20
-1535
 30
0
 11
2221.72
 21
-1535
 31
0
 12
2221.3
 22
-1530
 32
0
 13
2221.3
 23
-1530
 33
0
  0
SOLID
  5
A24
330
A1D
100
AcDbEntity
  8
0
 62
     0
100
AcDbTrace
 10
2220.88
 20
1775
 30
0
 11
2221.72
 21
1775
 31
0
 12
2221.3
 22
1770
 32
0
 13
2221.3
 23
1770
 33
0
  0
ENDBLK
  5
A25
330
A1D
100
AcDbEntity
  8
RoomHeight
100
AcDbBlockEnd
  0
BLOCK
  5
A28
330
A27
100
AcDbEntity
  8
TableWidth
100
AcDbBlockBegin
  2
*TableWidth
 70
   1
 10
0
 20
0
 30
0
  3
*TableWidth
  1
 
  0
LINE
  5
A29
330
A27
100
AcDbEntity
  8
TableWidth
100
AcDbLine
 10
-1425
 20
-280
 30
0
 11
-1425
 21
524.52
 31
0
  0
LINE
  5
A2A
330
A27
100
AcDbEntity
  8
TableWidth
100
AcDbLine
 10
-225
 20
-280
 30
0
 11
-225
 21
524.52
 31
0
  0
LINE
  5
A2B
330
A27
100
AcDbEntity
  8
TableWidth
100
AcDbLine
 10
-225
 20
524.52
 30
0
 11
-1425
 21
524.52
 31
0
  0
TEXT
  5
A2C
330
A27
100
AcDbEntity
  8
TableWidth
100
AcDbText
 10
-825
 20
519.52
 30
0
 40
3.5
  1
1200
  7
STANDARD
 72
1
 11
-825
 21
524.52
 31
0
100
AcDbText
  0
SOLID
  5
A2D
330
A27
100
AcDbEntity
  8
0
 62
     0
100
AcDbTrace
 10
-220
 20
524.937
 30
0
 11
-220
 21
524.103
 31
0
 12
-225
 22
524.52
 32
0
 13
-225
 23
524.52
 33
0
  0
SOLID
  5
A2E
330
A27
100
AcDbEntity
  8
0
 62
     0
100
AcDbTrace
 10
-1430
 20
524.937
 30
0
 11
-1430
 21
524.103
 31
0
 12
-1425
 22
524.52
 32
0
 13
-1425
 23
524.52
 33
0
  0
ENDBLK
  5
A2F
330
A27
100
AcDbEntity
  8
TableWidth
100
AcDbBlockEnd
  0
BLOCK
  5
A32
330
A31
100
AcDbEntity
  8
TableHeight
100
AcDbBlockBegin
  2
*TableHeight
 70
   1
 10
0
 20
0
 30
0
  3
*TableHeight
  1
 
  0
LINE
  5
A33
330
A31
100
AcDbEntity
  8
TableHeight
100
AcDbLine
 10
-1425
 20
-880
 30
0
 11
-1419.52
 21
-880
 31
0
  0
LINE
  5
A34
330
A31
100
AcDbEntity
  8
TableHeight
100
AcDbLine
 10
-1425
 20
-280
 30
0
 11
-1419.52
 21
-280
 31
0
  0
LINE
  5
A35
330
A31
100
AcDbEntity
  8
TableHeight
100
AcDbLine
 10
-1419.52
 20
-280
 30
0
 11
-1419.52
 21
-880
 31
0
  0
TEXT
  5
A36
330
A31
100
AcDbEntity
  8
TableHeight
100
AcDbText
 10
-1424.52
 20
820
 30
0
 40
3.5
  1
600
  7
STANDARD
 72
1
 11
-1419.52
 21
820
 31
0
100
AcDbText
  0
SOLID
  5
A37
330
A31
100
AcDbEntity
  8
0
 62
     0
100
AcDbTrace
 10
-1419.1
 20
-275
 30
0
 11
-1419.94
 21
-275
 31
0
 12
-1419.52
 22
-280
 32
0
 13
-1419.52
 23
-280
 33
0
  0
SOLID
  5
A38
330
A31
100
AcDbEntity
  8
0
 62
     0
100
AcDbTrace
 10
-1419.1
 20
-885
 30
0
 11
-1419.94
 21
-885
 31
0
 12
-1419.52
 22
-880
 32
0
 13
-1419.52
 23
-880
 33
0
  0
ENDBLK
  5
A39
330
A31
100
AcDbEntity
  8
TableHeight
100
AcDbBlockEnd
  0
BLOCK
  5
A3C
330
A3B
100
AcDbEntity
  8
WallThickness
100
AcDbBlockBegin
  2
*WallThickness
 70
   1
 10
0
 20
0
 30
0
  3
*WallThickness
  1
 
  0
LINE
  5
A3D
330
A3B
100
AcDbEntity
  8
WallThickness
100
AcDbLine
 10
1925
 20
-1230
 30
0
 11
-1920.8
 21
-1230
 31
0
  0
LINE
  5
A3E
330
A3B
100
AcDbEntity
  8
WallThickness
100
AcDbLine
 10
1925
 20
1770
 30
0
 11
-1920.8
 21
1770
 31
0
  0
LINE
  5
A3F
330
A3B
100
AcDbEntity
  8
WallThickness
100
AcDbLine
 10
-1920.8
 20
1770
 30
0
 11
-1920.8
 21
-1230
 31
0
  0
TEXT
  5
A40
330
A3B
100
AcDbEntity
  8
WallThickness
100
AcDbText
 10
-1925.8
 20
-1380
 30
0
 40
3.5
  1
3000
  7
STANDARD
 72
1
 11
-1920.8
 21
-1380
 31
0
100
AcDbText
  0
SOLID
  5
A41
330
A3B
100
AcDbEntity
  8
0
 62
     0
100
AcDbTrace
 10
-1921.22
 20
1775
 30
0
 11
-1920.38
 21
1775
 31
0
 12
-1920.8
 22
1770
 32
0
 13
-1920.8
 23
1770
 33
0
  0
SOLID
  5
A42
330
A3B
100
AcDbEntity
  8
0
 62
     0
100
AcDbTrace
 10
-1921.22
 20
-1235
 30
0
 11
-1920.38
 21
-1235
 31
0
 12
-1920.8
 22
-1230
 32
0
 13
-1920.8
 23
-1230
 33
0
  0
ENDBLK
  5
A43
330
A3B
100
AcDbEntity
  8
WallThickness
100
AcDbBlockEnd
  0
ENDSEC
  0
SECTION
  2
ENTITIES
  0
LINE
  5
A08
330
A02
100
AcDbEntity
  8
TopView
100
AcDbLine
 10
-1925.000000000
 20
-1530.000000000
 30
0.000000000
 11
2225.000000000
 21
-1530.000000000
 31
0.000000000
  0
LINE
  5
A09
330
A02
100
AcDbEntity
  8
TopView
100
AcDbLine
 10
2225.000000000
 20
-1530.000000000
 30
0.000000000
 11
2225.000000000
 21
1770.000000000
 31
0.000000000
  0
LINE
  5
A0A
330
A02
100
AcDbEntity
  8
TopView
100
AcDbLine
 10
2225.000000000
 20
1770.000000000
 30
0.000000000
 11
1925.000000000
 21
1770.000000000
 31
0.000000000
  0
LINE
  5
A0B
330
A02
100
AcDbEntity
  8
TopView
100
AcDbLine
 10
1925.000000000
 20
1770.000000000
 30
0.000000000
 11
1925.000000000
 21
-1230.000000000
 31
0.000000000
  0
LINE
  5
A0C
330
A02
100
AcDbEntity
  8
TopView
100
AcDbLine
 10
1925.000000000
 20
-1230.000000000
 30
0.000000000
 11
-1925.000000000
 21
-1230.000000000
 31
0.000000000
  0
LINE
  5
A0D
330
A02
100
AcDbEntity
  8
TopView
100
AcDbLine
 10
-1925.000000000
 20
-1230.000000000
 30
0.000000000
 11
-1925.000000000
 21
-1530.000000000
 31
0.000000000
  0
LINE
  5
A0E
330
A02
100
AcDbEntity
  8
TopView
100
AcDbLine
 10
-1425.000000000
 20
-880.000000000
 30
0.000000000
 11
-225.000000000
 21
-880.000000000
 31
0.000000000
  0
LINE
  5
A0F
330
A02
100
AcDbEntity
  8
TopView
100
AcDbLine
 10
-225.000000000
 20
-880.000000000
 30
0.000000000
 11
-225.000000000
 21
-280.000000000
 31
0.000000000
  0
LINE
  5
A10
330
A02
100
AcDbEntity
  8
TopView
100
AcDbLine
 10
-225.000000000
 20
-280.000000000
 30
0.000000000
 11
-1425.000000000
 21
-280.000000000
 31
0.000000000
  0
LINE
  5
A11
330
A02
100
AcDbEntity
  8
TopView
100
AcDbLine
 10
-1425.000000000
 20
-280.000000000
 30
0.000000000
 11
-1425.000000000
 21
-880.000000000
 31
0.000000000
  0
DIMENSION
  5
A12
330
A02
100
AcDbEntity
  8
RoomWidth
100
AcDbDimension
  2
*RoomWidth
 10
150.000000000
 20
-1525.800000000
 30
0.000000000
 11
150.000000000
 21
-1530.800000000
 31
0.000000000
 70
32
  1
300
  3
STANDARD
100
AcDbAlignedDimension
 13
2225.000000000
 23
1770.000000000
 33
0.000000000
 14
1925.000000000
 24
1770.000000000
 34
0.000000000
100
AcDbRotatedDimension
  0
DIMENSION
  5
A1C
330
A02
100
AcDbEntity
  8
RoomHeight
100
AcDbDimension
  2
*RoomHeight
 10
2221.300000000
 20
120.000000000
 30
0.000000000
 11
2226.300000000
 21
120.000000000
 31
0.000000000
 70
32
  1
3300
  3
STANDARD
100
AcDbAlignedDimension
 13
2225.000000000
 23
-1530.000000000
 33
0.000000000
 14
2225.000000000
 24
1770.000000000
 34
0.000000000
 50
90
100
AcDbRotatedDimension
  0
DIMENSION
  5
A26
330
A02
100
AcDbEntity
  8
TableWidth
100
AcDbDimension
  2
*TableWidth
 10
-825.000000000
 20
524.520000000
 30
0.000000000
 11
-825.000000000
 21
519.520000000
 31
0.000000000
 70
32
  1
1200
  3
STANDARD
100
AcDbAlignedDimension
 13
-225.000000000
 23
-280.000000000
 33
0.000000000
 14
-1425.000000000
 24
-280.000000000
 34
0.000000000
100
AcDbRotatedDimension
  0
DIMENSION
  5
A30
330
A02
100
AcDbEntity
  8
TableHeight
100
AcDbDimension
  2
*TableHeight
 10
-1419.520000000
 20
820.000000000
 30
0.000000000
 11
-1424.520000000
 21
820.000000000
 31
0.000000000
 70
32
  1
600
  3
STANDARD
100
AcDbAlignedDimension
 13
-1425.000000000
 23
-280.000000000
 33
0.000000000
 14
-1425.000000000
 24
-880.000000000
 34
0.000000000
 50
90
100
AcDbRotatedDimension
  0
DIMENSION
  5
A3A
330
A02
100
AcDbEntity
  8
WallThickness
100
AcDbDimension
  2
*WallThickness
 10
-1920.800000000
 20
-1380.000000000
 30
0.000000000
 11
-1925.800000000
 21
-1380.000000000
 31
0.000000000
 70
32
  1
3000
  3
STANDARD
100
AcDbAlignedDimension
 13
1925.000000000
 23
1770.000000000
 33
0.000000000
 14
1925.000000000
 24
-1230.000000000
 34
0.000000000
 50
90
100
AcDbRotatedDimension
  0
ENDSEC
  0
SECTION
  2
OBJECTS
  0
DICTIONARY
  5
F000
330
0
100
AcDbDictionary
  3
ACAD_GROUP
350
F001
  0
DICTIONARY
  5
F001
330
F000
100
AcDbDictionary
  0
ENDSEC
  0
EOF